<svg width="512" height="512" viewBox="0 0 512 512" fill="none" xmlns="http://www.w3.org/2000/svg">
<g clip-path="url(#clip0)">
<path d="M405.333 85.3333H381.867C376.915 61.2568 363.815 39.6234 344.773 24.0793C325.732 8.53525 301.914 0.0310299 277.333 0L234.667 0C210.086 0.0310299 186.268 8.53525 167.227 24.0793C148.185 39.6234 135.085 61.2568 130.133 85.3333H106.667C78.3873 85.3672 51.2759 96.6162 31.2794 116.613C11.2828 136.609 0.0338743 163.721 0 192L0 256H512V192C511.966 163.721 500.717 136.609 480.721 116.613C460.724 96.6162 433.613 85.3672 405.333 85.3333V85.3333ZM174.592 85.3333C178.988 72.898 187.12 62.1246 197.873 54.4872C208.627 46.8498 221.477 42.7213 234.667 42.6667H277.333C290.523 42.7213 303.373 46.8498 314.127 54.4872C324.88 62.1246 333.012 72.898 337.408 85.3333H174.592Z" fill="white" fill-opacity="0.9"/>
<path d="M277.333 320C277.333 325.658 275.086 331.084 271.085 335.085C267.084 339.086 261.658 341.333 256 341.333C250.342 341.333 244.916 339.086 240.915 335.085C236.914 331.084 234.667 325.658 234.667 320V298.667H0V405.333C0.0338743 433.613 11.2828 460.724 31.2794 480.721C51.2759 500.717 78.3873 511.966 106.667 512H405.333C433.613 511.966 460.724 500.717 480.721 480.721C500.717 460.724 511.966 433.613 512 405.333V298.667H277.333V320Z" fill="white" fill-opacity="0.9"/>
</g>
<defs>
<clipPath id="clip0">
<rect width="512" height="512" fill="white"/>
</clipPath>
</defs>
</svg>
