<svg width="100" height="100" viewBox="0 0 100 100" fill="none" xmlns="http://www.w3.org/2000/svg">
<path d="M79.1667 16.6667H74.5833C73.6163 11.9642 71.0576 7.73894 67.3385 4.70299C63.6195 1.66704 58.9675 0.00606052 54.1667 0L45.8333 0C41.0325 0.00606052 36.3805 1.66704 32.6615 4.70299C28.9424 7.73894 26.3837 11.9642 25.4167 16.6667H20.8333C15.31 16.6733 10.0148 18.8703 6.10925 22.7759C2.20367 26.6815 0.00661607 31.9767 0 37.5L0 79.1667C0.00661607 84.69 2.20367 89.9852 6.10925 93.8907C10.0148 97.7963 15.31 99.9934 20.8333 100H79.1667C84.69 99.9934 89.9852 97.7963 93.8907 93.8907C97.7963 89.9852 99.9934 84.69 100 79.1667V37.5C99.9934 31.9767 97.7963 26.6815 93.8907 22.7759C89.9852 18.8703 84.69 16.6733 79.1667 16.6667ZM45.8333 8.33333H54.1667C56.7427 8.34401 59.2526 9.15035 61.3529 10.642C63.4532 12.1337 65.0413 14.2379 65.9 16.6667H34.1C34.9587 14.2379 36.5468 12.1337 38.6471 10.642C40.7474 9.15035 43.2572 8.34401 45.8333 8.33333ZM20.8333 25H79.1667C82.4819 25 85.6613 26.317 88.0055 28.6612C90.3497 31.0054 91.6667 34.1848 91.6667 37.5V50H8.33333V37.5C8.33333 34.1848 9.65029 31.0054 11.9945 28.6612C14.3387 26.317 17.5181 25 20.8333 25ZM79.1667 91.6667H20.8333C17.5181 91.6667 14.3387 90.3497 11.9945 88.0055C9.65029 85.6613 8.33333 82.4819 8.33333 79.1667V58.3333H45.8333V62.5C45.8333 63.6051 46.2723 64.6649 47.0537 65.4463C47.8351 66.2277 48.8949 66.6667 50 66.6667C51.1051 66.6667 52.1649 66.2277 52.9463 65.4463C53.7277 64.6649 54.1667 63.6051 54.1667 62.5V58.3333H91.6667V79.1667C91.6667 82.4819 90.3497 85.6613 88.0055 88.0055C85.6613 90.3497 82.4819 91.6667 79.1667 91.6667Z" fill="url(#paint0_linear)"/>
<defs>
<linearGradient id="paint0_linear" x1="0" y1="0" x2="100" y2="100" gradientUnits="userSpaceOnUse">
<stop stop-color="#5B49F5"/>
<stop offset="1" stop-color="#8476FF"/>
</linearGradient>
</defs>
</svg>
