<svg width="512" height="452" viewBox="0 0 512 452" fill="none" xmlns="http://www.w3.org/2000/svg">
<path d="M202.009 328.613C200.075 328.613 198.127 327.948 196.538 326.594L141.84 280.019C139.953 278.41 138.868 276.061 138.868 273.58C138.868 271.104 139.958 268.755 141.84 267.146L196.538 220.571C200.09 217.543 205.425 217.972 208.453 221.524C211.476 225.08 211.052 230.415 207.495 233.439L160.358 273.58L207.495 313.722C211.052 316.75 211.476 322.085 208.453 325.637C206.778 327.604 204.401 328.613 202.009 328.613Z" fill="#5B49F5"/>
<path d="M309.991 328.613C307.599 328.613 305.222 327.604 303.552 325.637C300.524 322.085 300.953 316.75 304.505 313.722L351.642 273.58L304.505 233.439C300.953 230.415 300.524 225.08 303.552 221.524C306.575 217.972 311.915 217.543 315.462 220.571L370.16 267.146C372.047 268.755 373.132 271.104 373.132 273.58C373.132 276.061 372.047 278.41 370.16 280.019L315.462 326.594C313.873 327.948 311.925 328.613 309.991 328.613V328.613Z" fill="#5B49F5"/>
<path d="M236.637 363.547C236.057 363.547 235.472 363.486 234.882 363.363C230.316 362.401 227.392 357.915 228.354 353.349L262.443 191.495C263.406 186.929 267.887 184.005 272.458 184.967C277.024 185.929 279.948 190.41 278.986 194.981L244.896 356.835C244.057 360.816 240.547 363.547 236.637 363.547V363.547Z" fill="#5B49F5"/>
<path d="M455.245 451.726H56.7547C25.4623 451.726 0 426.269 0 394.972V56.7547C0 25.4623 25.4623 0 56.7547 0H455.245C486.538 0 512 25.4623 512 56.7547V394.972C512 426.269 486.538 451.726 455.245 451.726ZM56.7547 16.9057C34.783 16.9057 16.9057 34.783 16.9057 56.7547V394.972C16.9057 416.943 34.783 434.821 56.7547 434.821H455.245C477.217 434.821 495.094 416.943 495.094 394.972V56.7547C495.094 34.783 477.217 16.9057 455.245 16.9057H56.7547Z" fill="#5B49F5"/>
<path d="M503.547 135.354H8.45283C3.78302 135.354 0 131.571 0 126.901C0 122.236 3.78302 118.448 8.45283 118.448H503.547C508.217 118.448 512 122.236 512 126.901C512 131.571 508.217 135.354 503.547 135.354Z" fill="#5B49F5"/>
<path d="M144.425 94.9056C129.679 94.9056 117.675 82.9009 117.675 68.1556C117.675 53.4056 129.679 41.4056 144.425 41.4056C159.175 41.4056 171.175 53.4056 171.175 68.1556C171.175 82.9009 159.175 94.9056 144.425 94.9056ZM144.425 58.3113C139 58.3113 134.58 62.7264 134.58 68.1556C134.58 73.5849 139 78 144.425 78C149.854 78 154.269 73.5849 154.269 68.1556C154.269 62.7264 149.854 58.3113 144.425 58.3113Z" fill="#5B49F5"/>
<path d="M62.2358 94.6462C47.4858 94.6462 35.4858 82.6462 35.4858 67.8962C35.4858 53.1462 47.4858 41.1462 62.2358 41.1462C76.9858 41.1462 88.9858 53.1462 88.9858 67.8962C88.9858 82.6462 76.9858 94.6462 62.2358 94.6462ZM62.2358 58.0519C56.8113 58.0519 52.3915 62.4717 52.3915 67.8962C52.3915 73.3255 56.8113 77.7406 62.2358 77.7406C67.6651 77.7406 72.0802 73.3255 72.0802 67.8962C72.0802 62.4717 67.6651 58.0519 62.2358 58.0519Z" fill="#5B49F5"/>
<path d="M226.613 95.1603C211.868 95.1603 199.868 83.1603 199.868 68.4103C199.868 53.665 211.868 41.665 226.613 41.665C241.363 41.665 253.363 53.665 253.363 68.4103C253.363 83.1603 241.363 95.1603 226.613 95.1603ZM226.613 58.566C221.189 58.566 216.774 62.9811 216.774 68.4103C216.774 73.8396 221.189 78.2547 226.613 78.2547C232.042 78.2547 236.458 73.8396 236.458 68.4103C236.458 62.9811 232.042 58.566 226.613 58.566Z" fill="#5B49F5"/>
</svg>
