<svg width="100" height="100" viewBox="0 0 100 100" fill="none" xmlns="http://www.w3.org/2000/svg">
<rect width="100" height="100" fill="white"/>
<path d="M92.8571 7.14282H7.14286C3.21429 7.14282 0 10.3569 0 14.2857V85.7142C0 89.6428 3.21429 92.8571 7.14286 92.8571H92.8571C96.7857 92.8571 100 89.6428 100 85.7142V14.2857C100 10.3569 96.7857 7.14282 92.8571 7.14282ZM96.4286 85.7142C96.4286 87.8571 95 89.2857 92.8571 89.2857H7.14286C5 89.2857 3.57143 87.8571 3.57143 85.7142V28.5714H96.4286V85.7142ZM96.4286 25H3.57143V14.2857C3.57143 12.1426 5 10.7143 7.14286 10.7143H92.8571C95 10.7143 96.4286 12.1426 96.4286 14.2857V25Z" fill="#5B49F5"/>
<path d="M39.2857 21.4285C41.2582 21.4285 42.8572 19.8295 42.8572 17.8571C42.8572 15.8846 41.2582 14.2856 39.2857 14.2856C37.3133 14.2856 35.7143 15.8846 35.7143 17.8571C35.7143 19.8295 37.3133 21.4285 39.2857 21.4285Z" fill="#5B49F5"/>
<path d="M25 21.4285C26.9724 21.4285 28.5714 19.8295 28.5714 17.8571C28.5714 15.8846 26.9724 14.2856 25 14.2856C23.0276 14.2856 21.4286 15.8846 21.4286 17.8571C21.4286 19.8295 23.0276 21.4285 25 21.4285Z" fill="#5B49F5"/>
<path d="M10.7143 21.4285C12.6867 21.4285 14.2857 19.8295 14.2857 17.8571C14.2857 15.8846 12.6867 14.2856 10.7143 14.2856C8.74184 14.2856 7.14285 15.8846 7.14285 17.8571C7.14285 19.8295 8.74184 21.4285 10.7143 21.4285Z" fill="#5B49F5"/>
<path d="M53.8251 35.9841L42.7126 77.374L46.1619 78.3001L57.2743 36.9102L53.8251 35.9841Z" fill="#5B49F5"/>
<path d="M22.9074 57.143L38.0616 41.9903L35.5328 39.4653L17.8571 57.143L35.5346 74.8225L38.0632 72.2975L22.9074 57.143Z" fill="#5B49F5"/>
<path d="M64.4654 39.4634L61.9368 41.9884L77.0926 57.1428L61.9384 72.2955L64.4672 74.8205L82.1429 57.1428L64.4654 39.4634Z" fill="#5B49F5"/>
</svg>
