<svg width="100" height="100" viewBox="0 0 100 100" fill="none" xmlns="http://www.w3.org/2000/svg">
<g clip-path="url(#clip0)">
<path d="M47.0371 55.7732H52.9631C53.7725 55.7732 54.4287 55.117 54.4287 54.3076C54.4287 53.4982 53.7725 52.842 52.9631 52.842H47.0371C46.2277 52.842 45.5715 53.4982 45.5715 54.3076C45.5715 55.117 46.2275 55.7732 47.0371 55.7732Z" fill="#5B49F5"/>
<path d="M43.3067 18.3772C42.6913 17.8517 41.7661 17.9244 41.2404 18.5398L26.0202 36.3597C25.4945 36.9753 25.5674 37.9003 26.1828 38.426C26.4589 38.6618 26.7974 38.7771 27.134 38.7771C27.5479 38.7771 27.9593 38.6026 28.2493 38.2634L43.4695 20.4435C43.9949 19.8279 43.922 18.9028 43.3067 18.3772Z" fill="#5B49F5"/>
<path d="M26.1607 29.0221C26.4399 29.2703 26.7876 29.3924 27.1338 29.3924C27.538 29.3924 27.9403 29.2263 28.2297 28.9006L32.3437 24.2722C32.8815 23.6672 32.827 22.741 32.222 22.2032C31.6168 21.6654 30.6905 21.72 30.1529 22.325L26.039 26.9533C25.5014 27.5581 25.5559 28.4843 26.1607 29.0221Z" fill="#5B49F5"/>
<path d="M86.295 81.8262C85.896 80.5677 84.7411 79.7222 83.4209 79.7222H33.838C33.0286 79.7222 32.3724 80.3784 32.3724 81.1878C32.3724 81.9971 33.0286 82.6533 33.838 82.6533H83.4211C83.4579 82.6533 83.4901 82.677 83.501 82.7118L88.0168 96.9598C88.0213 96.9739 88.0295 97.0002 88.0045 97.0346C87.9795 97.0688 87.9517 97.0688 87.9369 97.0688H12.0631C12.0483 97.0688 12.0207 97.0688 11.9955 97.0346C11.9705 97.0002 11.9787 96.9739 11.9832 96.9598L16.499 82.7118C16.5101 82.6768 16.5422 82.6533 16.5789 82.6533H27.2224C28.0318 82.6533 28.688 81.9971 28.688 81.1878C28.688 80.3784 28.0318 79.7222 27.2224 79.7222H16.5791C15.2589 79.7222 14.1038 80.5677 13.705 81.8262L9.18923 96.0742C8.89553 97.0006 9.05635 97.9818 9.63047 98.766C10.2046 99.5502 11.0914 100 12.0631 100H87.9367C88.9087 100 89.7952 99.5502 90.3694 98.766C90.9435 97.9818 91.1043 97.0006 90.8106 96.0742L86.295 81.8262Z" fill="#5B49F5"/>
<path d="M88.6861 0H11.3139C8.0822 0 5.45294 2.62926 5.45294 5.86097V55.4984C5.45294 58.7301 8.0822 61.3594 11.3139 61.3594H40.0916C39.9909 64.3038 39.7017 69.1893 39.0707 71.9286H32.7625C31.9531 71.9286 31.2969 72.5848 31.2969 73.3942C31.2969 74.2036 31.9531 74.8597 32.7625 74.8597H67.2379C68.0473 74.8597 68.7035 74.2036 68.7035 73.3942C68.7035 72.5848 68.0473 71.9286 67.2379 71.9286H60.9296C60.2987 69.1893 60.0094 64.3038 59.9088 61.3594H88.6865C91.9182 61.3594 94.5474 58.7301 94.5474 55.4984V5.86097C94.547 2.62926 91.9178 0 88.6861 0V0ZM42.0633 71.9286C42.7099 68.6156 42.9438 63.7608 43.0235 61.3594H56.9763C57.056 63.7608 57.2899 68.6156 57.9365 71.9286H42.0633ZM91.6159 55.4984C91.6159 57.1139 90.3015 58.4282 88.6861 58.4282H11.3139C9.69845 58.4282 8.38411 57.1139 8.38411 55.4984V50.1869H91.6161V55.4984H91.6159ZM91.6159 47.2557H87.7659V25.6225C87.7659 24.8131 87.1097 24.1569 86.3003 24.1569C85.4909 24.1569 84.8347 24.8131 84.8347 25.6225V47.2557H15.1653V9.9351C15.1653 9.72152 15.339 9.5478 15.5526 9.5478H84.4474C84.661 9.5478 84.8347 9.72152 84.8347 9.9351V18.9166C84.8347 19.726 85.4909 20.3822 86.3003 20.3822C87.1097 20.3822 87.7659 19.726 87.7659 18.9166V9.9351C87.7659 8.10527 86.2772 6.61663 84.4474 6.61663H15.5526C13.7227 6.61663 12.2341 8.10527 12.2341 9.9351V47.2557H8.38411V5.86097C8.38411 4.24551 9.69845 2.93117 11.3139 2.93117H88.6861C90.3015 2.93117 91.6159 4.24551 91.6159 5.86097V47.2557Z" fill="#5B49F5"/>
<path d="M27.2225 85.7729H25.2338C24.4244 85.7729 23.7682 86.4291 23.7682 87.2385C23.7682 88.0479 24.4244 88.7041 25.2338 88.7041H27.2225C28.0319 88.7041 28.6881 88.0479 28.6881 87.2385C28.6881 86.4291 28.0319 85.7729 27.2225 85.7729Z" fill="#5B49F5"/>
<path d="M33.1886 88.7041H35.1773C35.9867 88.7041 36.6429 88.0479 36.6429 87.2385C36.6429 86.4291 35.9867 85.7729 35.1773 85.7729H33.1886C32.3792 85.7729 31.723 86.4291 31.723 87.2385C31.723 88.0479 32.3792 88.7041 33.1886 88.7041Z" fill="#5B49F5"/>
<path d="M41.1434 88.7041H43.1321C43.9415 88.7041 44.5977 88.0479 44.5977 87.2385C44.5977 86.4291 43.9415 85.7729 43.1321 85.7729H41.1434C40.334 85.7729 39.6779 86.4291 39.6779 87.2385C39.6779 88.0479 40.334 88.7041 41.1434 88.7041Z" fill="#5B49F5"/>
<path d="M49.0985 88.7041H51.0872C51.8965 88.7041 52.5527 88.0479 52.5527 87.2385C52.5527 86.4291 51.8965 85.7729 51.0872 85.7729H49.0985C48.2891 85.7729 47.6329 86.4291 47.6329 87.2385C47.6329 88.0479 48.2891 88.7041 49.0985 88.7041Z" fill="#5B49F5"/>
<path d="M57.0533 88.7041H59.042C59.8514 88.7041 60.5076 88.0479 60.5076 87.2385C60.5076 86.4291 59.8514 85.7729 59.042 85.7729H57.0533C56.2439 85.7729 55.5877 86.4291 55.5877 87.2385C55.5877 88.0479 56.2439 88.7041 57.0533 88.7041Z" fill="#5B49F5"/>
<path d="M65.0082 88.7041H66.9969C67.8063 88.7041 68.4625 88.0479 68.4625 87.2385C68.4625 86.4291 67.8063 85.7729 66.9969 85.7729H65.0082C64.1989 85.7729 63.5427 86.4291 63.5427 87.2385C63.5427 88.0479 64.1989 88.7041 65.0082 88.7041Z" fill="#5B49F5"/>
<path d="M72.7776 88.7041H74.7663C75.5757 88.7041 76.2319 88.0479 76.2319 87.2385C76.2319 86.4291 75.5757 85.7729 74.7663 85.7729H72.7776C71.9682 85.7729 71.312 86.4291 71.312 87.2385C71.312 88.0479 71.9682 88.7041 72.7776 88.7041Z" fill="#5B49F5"/>
<path d="M27.2225 91.0183H25.2338C24.4244 91.0183 23.7682 91.6745 23.7682 92.4839C23.7682 93.2933 24.4244 93.9495 25.2338 93.9495H27.2225C28.0319 93.9495 28.6881 93.2933 28.6881 92.4839C28.6881 91.6745 28.0319 91.0183 27.2225 91.0183Z" fill="#5B49F5"/>
<path d="M33.1886 93.9495H35.1773C35.9867 93.9495 36.6429 93.2933 36.6429 92.4839C36.6429 91.6745 35.9867 91.0183 35.1773 91.0183H33.1886C32.3792 91.0183 31.723 91.6745 31.723 92.4839C31.723 93.2933 32.3792 93.9495 33.1886 93.9495Z" fill="#5B49F5"/>
<path d="M41.1434 93.9495H43.1321C43.9415 93.9495 44.5977 93.2933 44.5977 92.4839C44.5977 91.6745 43.9415 91.0183 43.1321 91.0183H41.1434C40.334 91.0183 39.6779 91.6745 39.6779 92.4839C39.6779 93.2933 40.334 93.9495 41.1434 93.9495Z" fill="#5B49F5"/>
<path d="M49.0985 93.9495H51.0872C51.8965 93.9495 52.5527 93.2933 52.5527 92.4839C52.5527 91.6745 51.8965 91.0183 51.0872 91.0183H49.0985C48.2891 91.0183 47.6329 91.6745 47.6329 92.4839C47.6329 93.2933 48.2891 93.9495 49.0985 93.9495Z" fill="#5B49F5"/>
<path d="M57.0533 93.9495H59.042C59.8514 93.9495 60.5076 93.2933 60.5076 92.4839C60.5076 91.6745 59.8514 91.0183 59.042 91.0183H57.0533C56.2439 91.0183 55.5877 91.6745 55.5877 92.4839C55.5877 93.2933 56.2439 93.9495 57.0533 93.9495Z" fill="#5B49F5"/>
<path d="M65.0082 93.9495H66.9969C67.8063 93.9495 68.4625 93.2933 68.4625 92.4839C68.4625 91.6745 67.8063 91.0183 66.9969 91.0183H65.0082C64.1989 91.0183 63.5427 91.6745 63.5427 92.4839C63.5427 93.2933 64.1989 93.9495 65.0082 93.9495Z" fill="#5B49F5"/>
<path d="M72.7776 93.9495H74.7663C75.5757 93.9495 76.2319 93.2933 76.2319 92.4839C76.2319 91.6745 75.5757 91.0183 74.7663 91.0183H72.7776C71.9682 91.0183 71.312 91.6745 71.312 92.4839C71.312 93.2933 71.9682 93.9495 72.7776 93.9495Z" fill="#5B49F5"/>
</g>
<defs>
<clipPath id="clip0">
<rect width="100" height="100" fill="white"/>
</clipPath>
</defs>
</svg>
