<svg width="68" height="67" viewBox="0 0 68 67" fill="none" xmlns="http://www.w3.org/2000/svg">
<path d="M33.9221 47.1167C26.3835 47.1167 20.2731 41.0072 20.2731 33.4686C20.2731 25.93 26.3835 19.8181 33.9221 19.8181C41.4607 19.8181 47.5712 25.93 47.5712 33.4686C47.5712 41.0072 41.4607 47.1167 33.9221 47.1167ZM66.176 39.3403V27.5945L57.3789 26.8375C56.8538 24.9813 56.126 23.2125 55.2018 21.5651L60.8828 14.8126L52.5765 6.50725L45.8262 12.1873C44.177 11.2628 42.4094 10.5349 40.5528 10.0109L39.7946 1.21298H28.0497L27.2915 10.0109C25.4346 10.5349 23.667 11.2628 22.0188 12.1873L15.2668 6.50725L6.96246 14.8126L12.6415 21.5626C11.7173 23.2125 10.9904 24.9813 10.4654 26.8375L1.66797 27.5945V39.3403L10.4654 40.0998C10.9904 41.9559 11.7173 43.7247 12.6415 45.3722L6.96246 52.1222L15.2668 60.4275L22.0178 54.75C23.667 55.6744 25.4346 56.3999 27.2915 56.9239L28.0497 65.7242H39.7946L40.5528 56.9239C42.4094 56.3999 44.178 55.6744 45.8262 54.75L52.5765 60.4275L60.8828 52.1222L55.2018 45.3722C56.126 43.7247 56.8538 41.9559 57.3789 40.0998L66.176 39.3403Z" fill="white"/>
<path d="M33.9224 47.117V45.9038C30.4838 45.9038 27.3827 44.5135 25.1289 42.2619C22.8761 40.0078 21.4865 36.907 21.4865 33.4689C21.4865 30.0307 22.8761 26.9275 25.1289 24.6734C27.3827 22.4218 30.4838 21.0315 33.9224 21.0315C37.36 21.0315 40.4611 22.4218 42.7159 24.6734C44.9678 26.9275 46.3583 30.0307 46.3583 33.4689C46.3583 36.907 44.9678 40.0078 42.7159 42.2619C40.4611 44.5135 37.36 45.9038 33.9224 45.9038V47.117V48.3301C42.1312 48.3301 48.7837 41.6771 48.7846 33.4689C48.7837 25.2582 42.1312 18.6052 33.9224 18.6052C25.7136 18.6052 19.0611 25.2582 19.0602 33.4689C19.0611 41.6771 25.7136 48.3301 33.9224 48.3301V47.117ZM66.1763 39.3406H67.3895V27.5947C67.3895 26.9662 66.9081 26.4397 66.2806 26.3864L57.4823 25.6294L57.3792 26.8377L58.5457 26.5077C57.9962 24.5618 57.2331 22.7057 56.2606 20.9708L55.202 21.5653L56.1308 22.3465L61.8109 15.5941C62.2165 15.1136 62.1862 14.4003 61.7407 13.9563L53.4344 5.65096C52.9899 5.20452 52.2781 5.17539 51.7957 5.58059L45.0457 11.2607L45.8264 12.1875L46.4199 11.1296C44.6844 10.1567 42.8277 9.39482 40.8828 8.84405L40.5531 10.0111L41.7614 9.90675L41.0032 1.10888C40.9493 0.482888 40.4242 3.21103e-05 39.7948 3.21103e-05H28.05C27.4196 3.21103e-05 26.8955 0.482888 26.8404 1.10888L26.0822 9.90675L27.2917 10.0111L26.9608 8.84405C25.0161 9.39482 23.1592 10.1567 21.4258 11.1296L22.0191 12.1875L22.8001 11.2607L16.0481 5.58059C15.5667 5.17539 14.8549 5.20452 14.4094 5.65096L6.10478 13.9563C5.6593 14.4003 5.62898 15.1136 6.03369 15.5941L11.714 22.3441L12.6418 21.5628L11.5839 20.9708C10.6117 22.7057 9.84764 24.5618 9.29807 26.5077L10.4656 26.8377L10.3613 25.6294L1.56415 26.3864C0.9367 26.4397 0.455078 26.9662 0.455078 27.5947V39.3406C0.455078 39.9714 0.9367 40.4955 1.56415 40.5489L10.3613 41.3083L10.4656 40.1L9.29807 40.43C9.84764 42.3735 10.6117 44.2321 11.5839 45.9645L12.6418 45.3724L11.714 44.5911L6.03369 51.3412C5.62898 51.824 5.6593 52.5349 6.10478 52.9814L14.4094 61.2867C14.8549 61.7307 15.5667 61.7623 16.0481 61.3571L22.7991 55.677L22.0181 54.7502L21.4249 55.808C23.1602 56.7786 25.017 57.5429 26.9617 58.0912L27.2917 56.9242L26.0822 57.0285L26.8404 65.8288C26.8945 66.4548 27.4196 66.9376 28.05 66.9376H39.7948C40.4242 66.9376 40.9493 66.4548 41.0032 65.8288L41.7614 57.0285L40.5531 56.9242L40.8828 58.0912C42.8277 57.5429 44.6854 56.781 46.4199 55.808L45.8264 54.7502L45.0457 55.677L51.7957 61.3571C52.2781 61.7623 52.99 61.7307 53.4354 61.2867L61.7407 52.9814C62.1862 52.5349 62.2165 51.824 61.8109 51.3412L56.1308 44.5911L55.202 45.3724L56.2606 45.9645C57.2331 44.2321 57.9962 42.3735 58.5457 40.43L57.3792 40.1L57.4823 41.3083L66.2806 40.5489C66.9081 40.4955 67.3895 39.9714 67.3895 39.3406H66.1763L66.0722 38.1323L57.2748 38.8892C56.7706 38.9329 56.349 39.2823 56.2114 39.77C55.7111 41.5364 55.0201 43.2178 54.1444 44.7779C53.8969 45.2195 53.9491 45.7654 54.2742 46.1537L59.2387 52.0521L52.5066 58.7851L46.6075 53.8209C46.2207 53.4957 45.6738 53.4448 45.2332 53.6923C43.6714 54.5658 41.9919 55.2573 40.2243 55.7571C39.7371 55.893 39.3882 56.3176 39.3448 56.8198L38.6821 64.5113H29.1627L28.5 56.8198C28.4566 56.3176 28.1067 55.893 27.6205 55.7571C25.8529 55.2573 24.1744 54.5682 22.6116 53.6898C22.1698 53.4448 21.6238 53.4957 21.2373 53.8209L15.3382 58.7827L8.60706 52.0521L13.5706 46.1537C13.8957 45.7654 13.9479 45.2195 13.7004 44.7779C12.8247 43.2178 12.1328 41.5364 11.6334 39.77C11.4958 39.2823 11.0732 38.9329 10.57 38.8892L2.88141 38.2269V28.7084L10.57 28.046C11.0732 28.0023 11.4958 27.6529 11.6334 27.1676C12.1328 25.3988 12.8247 23.7198 13.7004 22.1573C13.9479 21.7157 13.8957 21.1698 13.5706 20.784L8.60706 14.8832L15.3382 8.15252L21.2383 13.1168C21.6248 13.4419 22.1717 13.4929 22.6126 13.2454C24.1744 12.3695 25.8529 11.678 27.6215 11.1781C28.1077 11.0423 28.4566 10.6201 28.5 10.1154L29.1627 2.42636H38.6821L39.3448 10.1154C39.3882 10.6201 39.7371 11.0423 40.2233 11.1781C41.9909 11.678 43.6704 12.3695 45.2332 13.2454C45.6738 13.4929 46.2207 13.4419 46.6075 13.1168L52.5066 8.15252L59.2387 14.8832L54.2742 20.784C53.9491 21.1698 53.8969 21.7181 54.1444 22.1573C55.0201 23.7198 55.712 25.3988 56.2114 27.1676C56.349 27.6529 56.7706 28.0023 57.2748 28.046L64.9632 28.7084V39.3406H66.1763L66.0722 38.1323L66.1763 39.3406Z" fill="#1D2A30"/>
</svg>
