<svg width="100" height="101" viewBox="0 0 100 101" fill="none" xmlns="http://www.w3.org/2000/svg">
<path d="M50 70.3924C38.7374 70.3924 29.6083 61.2648 29.6083 50.0021C29.6083 38.7395 38.7374 29.6083 50 29.6083C61.2627 29.6083 70.3917 38.7395 70.3917 50.0021C70.3917 61.2648 61.2627 70.3924 50 70.3924ZM98.1874 58.7745V41.2261L85.0444 40.0952C84.26 37.3221 83.1725 34.6795 81.7918 32.2182L90.2792 22.13L77.8696 9.72182L67.7847 18.2078C65.3208 16.8267 62.6801 15.7392 59.9063 14.9562L58.7735 1.81219H41.2266L40.0938 14.9562C37.3197 15.7392 34.6789 16.8267 32.2165 18.2078L22.129 9.72182L9.72228 22.13L18.2068 32.2146C16.8261 34.6795 15.74 37.3221 14.9556 40.0952L1.81232 41.2261V58.7745L14.9556 59.909C15.74 62.6821 16.8261 65.3247 18.2068 67.786L9.72228 77.8706L22.129 90.2788L32.215 81.7964C34.6789 83.1775 37.3197 84.2614 40.0938 85.0444L41.2266 98.192H58.7735L59.9063 85.0444C62.6801 84.2614 65.3223 83.1775 67.7847 81.7964L77.8696 90.2788L90.2792 77.8706L81.7918 67.786C83.1725 65.3247 84.26 62.6821 85.0444 59.909L98.1874 58.7745Z" fill="#5B49F5"/>
<path d="M50.0002 70.3927V68.5802C44.8629 68.5802 40.2299 66.5031 36.8627 63.1392C33.4969 59.7716 31.4209 55.139 31.4209 50.0024C31.4209 44.8659 33.4969 40.2296 36.8627 36.862C40.2299 33.4981 44.8629 31.421 50.0002 31.421C55.136 31.421 59.769 33.4981 63.1377 36.862C66.502 40.2296 68.5794 44.8659 68.5794 50.0024C68.5794 55.139 66.502 59.7716 63.1377 63.1392C59.769 66.5031 55.136 68.5802 50.0002 68.5802V70.3927V72.2052C62.2641 72.2052 72.2029 62.2656 72.2044 50.0024C72.2029 37.7356 62.2641 27.7961 50.0002 27.7961C37.7363 27.7961 27.7974 37.7356 27.796 50.0024C27.7974 62.2656 37.7363 72.2052 50.0002 72.2052V70.3927ZM98.1875 58.7748H100V41.2264C100 40.2875 99.2808 39.5009 98.3434 39.4212L85.1987 38.2902L85.0446 40.0955L86.7875 39.6024C85.9664 36.6952 84.8264 33.9222 83.3735 31.3304L81.792 32.2185L83.1796 33.3857L91.6656 23.2975C92.2716 22.5797 92.2263 21.514 91.5608 20.8506L79.1512 8.44249C78.4871 7.77551 77.4235 7.73199 76.7029 8.33736L66.6183 16.8234L67.7848 18.208L68.6715 16.6276C66.0786 15.174 63.3048 14.0358 60.399 13.213L59.9064 14.9565L61.7116 14.8006L60.5788 1.65662C60.4984 0.72139 59.7139 0 58.7736 0H41.2268C40.285 0 39.502 0.72139 39.4197 1.65662L38.2869 14.8006L40.094 14.9565L39.5995 13.213C36.6941 14.0358 33.92 15.174 31.3303 16.6276L32.2166 18.208L33.3835 16.8234L23.296 8.33736C22.5768 7.73199 21.5133 7.77551 20.8477 8.44249L8.44065 20.8506C7.77511 21.514 7.72981 22.5797 8.33445 23.2975L16.8208 33.3821L18.207 32.2148L16.6265 31.3304C15.174 33.9222 14.0325 36.6952 13.2114 39.6024L14.9558 40.0955L14.7999 38.2902L1.65695 39.4212C0.719544 39.5009 0 40.2875 0 41.2264V58.7748C0 59.7172 0.719544 60.5002 1.65695 60.58L14.7999 61.7145L14.9558 59.9093L13.2114 60.4023C14.0325 63.3059 15.174 66.0826 16.6265 68.6708L18.207 67.7863L16.8208 66.6191L8.33445 76.7037C7.72981 77.425 7.77511 78.4871 8.44065 79.1541L20.8477 91.5623C21.5133 92.2256 22.5768 92.2728 23.296 91.6674L33.382 83.1814L32.2152 81.7967L31.3289 83.3771C33.9214 84.8271 36.6956 85.969 39.601 86.7883L40.094 85.0446L38.2869 85.2005L39.4197 98.3481C39.5005 99.2834 40.285 100.005 41.2268 100.005H58.7736C59.7139 100.005 60.4984 99.2834 60.5788 98.3481L61.7116 85.2005L59.9064 85.0446L60.399 86.7883C63.3048 85.969 66.08 84.8307 68.6715 83.3771L67.7848 81.7967L66.6183 83.1814L76.7029 91.6674C77.4235 92.2728 78.4871 92.2256 79.1526 91.5623L91.5608 79.1541C92.2263 78.4871 92.2716 77.425 91.6656 76.7037L83.1796 66.6191L81.792 67.7863L83.3735 68.6708C84.8264 66.0826 85.9664 63.3059 86.7875 60.4023L85.0446 59.9093L85.1987 61.7145L98.3434 60.58C99.2808 60.5002 100 59.7172 100 58.7748H98.1875L98.032 56.9695L84.8887 58.1005C84.1355 58.1657 83.5055 58.6878 83.2999 59.4164C82.5525 62.0553 81.5201 64.5674 80.2118 66.8982C79.8421 67.5579 79.92 68.3735 80.4058 68.9535L87.8227 77.7657L77.765 87.8249L68.9517 80.4083C68.3739 79.9226 67.5568 79.8465 66.8985 80.2162C64.5652 81.5212 62.056 82.5543 59.4152 83.301C58.6873 83.504 58.1661 84.1384 58.1012 84.8888L57.1112 96.3798H42.8892L41.8992 84.8888C41.8343 84.1384 41.3116 83.504 40.5851 83.301C37.9444 82.5543 35.4366 81.5248 33.1018 80.2126C32.4417 79.8465 31.6261 79.9226 31.0487 80.4083L22.2353 87.8213L12.1791 77.7657L19.5946 68.9535C20.0803 68.3735 20.1583 67.5579 19.7885 66.8982C18.4803 64.5674 17.4464 62.0553 16.7004 59.4164C16.4949 58.6878 15.8634 58.1657 15.1116 58.1005L3.62494 57.1109V42.8903L15.1116 41.9007C15.8634 41.8354 16.4949 41.3134 16.7004 40.5884C17.4464 37.9458 18.4803 35.4374 19.7885 33.1029C20.1583 32.4432 20.0803 31.6276 19.5946 31.0513L12.1791 22.2354L22.2353 12.1798L31.0501 19.5964C31.6276 20.0822 32.4446 20.1583 33.1033 19.7886C35.4366 18.48 37.9444 17.4468 40.5866 16.7001C41.313 16.4971 41.8343 15.8664 41.8992 15.1124L42.8892 3.62494H57.1112L58.1012 15.1124C58.1661 15.8664 58.6873 16.4971 59.4138 16.7001C62.0545 17.4468 64.5637 18.48 66.8985 19.7886C67.5568 20.1583 68.3739 20.0822 68.9517 19.5964L77.765 12.1798L87.8227 22.2354L80.4058 31.0513C79.92 31.6276 79.8421 32.4468 80.2118 33.1029C81.5201 35.4374 82.5539 37.9458 83.2999 40.5884C83.5055 41.3134 84.1355 41.8354 84.8887 41.9007L96.3751 42.8903V58.7748H98.1875L98.032 56.9695L98.1875 58.7748Z" fill="#1D2A30"/>
</svg>
