<svg width="440" height="124" viewBox="0 0 440 124" fill="none" xmlns="http://www.w3.org/2000/svg">
<g filter="url(#filter0_d)">
<path d="M36.2002 1.50006C21.6002 5.60006 12.9002 14.4001 7.40018 30.5001C5.00018 37.6001 4.60018 40.3001 4.20018 55.2001C3.90018 68.2001 4.10018 73.5001 5.40018 79.2001C9.70018 98.7001 20.0002 109.9 37.7002 114.5C45.5002 116.5 65.3002 116.5 73.3002 114.4C76.6002 113.6 81.5002 111.8 84.2002 110.4L89.0002 108V78.5001V49.0001H69.0002H49.0002V60.0001V71.0001H57.0002H65.0002V81.4001C65.0002 93.4001 65.4002 93.0001 54.2002 93.0001C37.2002 93.0001 29.0002 81.8001 29.0002 58.5001C29.0002 33.6001 37.8002 23.0001 58.4002 23.0001C62.3002 23.0001 68.4002 23.7001 71.9002 24.5001C75.5002 25.4001 78.9002 25.9001 79.6002 25.6001C80.3002 25.3001 81.8002 20.8001 83.1002 15.5001C85.6002 4.50007 85.8002 5.10006 77.5002 2.40006C70.4002 5.93068e-05 43.5002 -0.499941 36.2002 1.50006Z" fill="white"/>
<path d="M194.5 5.2001C194.2 5.9001 194.1 30.6001 194.2 60.0001L194.5 113.5L206.8 113.8L219 114.1V90.5001V67.0001H234.5H250V90.5001V114.1L262.3 113.8L274.5 113.5L274.8 58.7001L275 4.0001H262.5H250V24.5001V45.0001H234.5H219V24.5001V4.0001H207C198.3 4.0001 194.8 4.3001 194.5 5.2001Z" fill="white"/>
<path d="M364 59.0001V114H372.9C381.1 114 381.9 113.8 382.5 111.9C382.9 110.8 383.5 110 383.8 110.2C391.7 114.4 395.2 115.3 403.8 115.8C409.7 116.1 414.7 115.8 417.7 114.9C424.1 113.2 430.1 107.1 433.1 99.5001C435.2 94.0001 435.4 92.0001 435.5 75.5001C435.5 60.3001 435.2 56.9001 433.7 53.5001C430.3 45.9001 426.9 42.1001 421.1 39.3001C416.2 36.9001 414.4 36.5001 407 36.6001C401.9 36.7001 396.8 37.4001 394.1 38.4001C391.7 39.3001 389.6 40.0001 389.4 40.0001C389.2 40.0001 388.9 32.0001 388.8 22.2001L388.5 4.5001L376.3 4.2001L364 3.9001V59.0001ZM407.3 59.5001C413.6 65.9001 413.6 89.0001 407.3 94.0001C404.1 96.5001 397.6 96.6001 392 94.4001L388 92.8001V76.3001V59.9001L391.3 58.5001C393 57.7001 396.8 57.1001 399.6 57.0001C403.8 57.0001 405.2 57.5001 407.3 59.5001Z" fill="white"/>
<path d="M106.1 7.70005C101 10.2 98.7998 14.4001 99.2998 20.8001C99.6998 27.1001 103.3 31.5 109.1 33C112.7 34 113.6 33.9 119.2 31.8C123.1 30.4 126 25.2001 126 19.9001C126 9.20005 115.7 3.00005 106.1 7.70005Z" fill="white"/>
<path d="M144.001 28.0001V38.9001L139.801 40.0001C130.701 42.3001 130.901 42.1001 131.201 50.7001L131.501 58.5001L137.801 58.8001L144.001 59.1001V77.8001C144.001 88.1001 144.501 98.1001 145.001 100.1C146.601 105.7 150.101 110.2 155.001 113C159.101 115.3 160.601 115.5 171.101 115.5C186.001 115.5 186.201 115.4 185.801 104.6L185.501 96.5001L178.701 95.9001C168.501 95.0001 168.601 95.1001 168.201 75.5001L167.901 59.0001H176.501H185.101L184.801 48.7001L184.501 38.5001L176.301 38.2001L168.001 37.9001V27.5001V17.0001H156.001H144.001V28.0001Z" fill="white"/>
<path d="M101.2 38.8001C100.3 39.5001 99.9998 47.7001 100.2 76.6001L100.5 113.5H112.5H124.5L124.8 76.6001C125 47.7001 124.7 39.5001 123.8 38.8001C123.1 38.4001 118 38.0001 112.5 38.0001C107 38.0001 101.9 38.4001 101.2 38.8001Z" fill="white"/>
<path d="M284.2 69.7001C284.5 99.4001 284.6 100.7 286.7 104.7C291.4 113.4 299 116.4 314.2 115.8C321.3 115.5 325 114.8 329.7 112.8C335.7 110.4 336 110.3 336.5 112.1C337.1 113.8 338.2 114 345.6 114H354V76.5001V39.0001H342H330L329.8 65.7001L329.5 92.5001L326.5 93.9001C324.9 94.7001 321.2 95.6001 318.4 95.8001C313.8 96.2001 313.1 96.0001 311.2 93.5001C309.1 90.8001 309 89.9001 309 64.9001V39.0001H296.4H283.9L284.2 69.7001Z" fill="white"/>
</g>
<defs>
<filter id="filter0_d" x="0.078125" y="0.258545" width="439.422" height="123.729" filterUnits="userSpaceOnUse" color-interpolation-filters="sRGB">
<feFlood flood-opacity="0" result="BackgroundImageFix"/>
<feColorMatrix in="SourceAlpha" type="matrix" values="0 0 0 0 0 0 0 0 0 0 0 0 0 0 0 0 0 0 127 0" result="hardAlpha"/>
<feOffset dy="4"/>
<feGaussianBlur stdDeviation="2"/>
<feComposite in2="hardAlpha" operator="out"/>
<feColorMatrix type="matrix" values="0 0 0 0 0 0 0 0 0 0 0 0 0 0 0 0 0 0 0.25 0"/>
<feBlend mode="normal" in2="BackgroundImageFix" result="effect1_dropShadow"/>
<feBlend mode="normal" in="SourceGraphic" in2="effect1_dropShadow" result="shape"/>
</filter>
</defs>
</svg>
