<svg width="45" height="45" viewBox="0 0 45 45" fill="none" xmlns="http://www.w3.org/2000/svg">
<g clip-path="url(#clip0)">
<path d="M22.5 0C18.0499 0 13.6998 1.3196 9.99968 3.79193C6.29957 6.26427 3.41569 9.77829 1.71272 13.8896C0.00974894 18.001 -0.435826 22.525 0.432341 26.8895C1.30051 31.2541 3.44343 35.2632 6.59011 38.4099C9.73679 41.5566 13.7459 43.6995 18.1105 44.5677C22.4751 45.4358 26.9991 44.9903 31.1104 43.2873C35.2217 41.5843 38.7357 38.7004 41.2081 35.0003C43.6804 31.3002 45 26.9501 45 22.5C44.9936 16.5346 42.621 10.8154 38.4028 6.59722C34.1846 2.37905 28.4654 0.00645203 22.5 0V0ZM22.5 41.25C18.7916 41.25 15.1665 40.1503 12.0831 38.0901C8.99965 36.0298 6.59641 33.1014 5.17727 29.6753C3.75813 26.2492 3.38681 22.4792 4.11029 18.8421C4.83376 15.2049 6.61952 11.864 9.24176 9.24175C11.864 6.61951 15.2049 4.83375 18.8421 4.11028C22.4792 3.3868 26.2492 3.75812 29.6753 5.17726C33.1014 6.5964 36.0298 8.99964 38.0901 12.0831C40.1503 15.1665 41.25 18.7916 41.25 22.5C41.2446 27.4711 39.2674 32.2371 35.7522 35.7522C32.2371 39.2673 27.4711 41.2445 22.5 41.25Z" fill="white"/>
<path d="M22.5 18.75H20.625C20.1277 18.75 19.6508 18.9475 19.2992 19.2992C18.9475 19.6508 18.75 20.1277 18.75 20.625C18.75 21.1223 18.9475 21.5992 19.2992 21.9508C19.6508 22.3025 20.1277 22.5 20.625 22.5H22.5V33.75C22.5 34.2473 22.6975 34.7242 23.0492 35.0758C23.4008 35.4275 23.8777 35.625 24.375 35.625C24.8723 35.625 25.3492 35.4275 25.7008 35.0758C26.0525 34.7242 26.25 34.2473 26.25 33.75V22.5C26.25 21.5054 25.8549 20.5516 25.1516 19.8484C24.4484 19.1451 23.4946 18.75 22.5 18.75Z" fill="white"/>
<path d="M22.5 15C24.0533 15 25.3125 13.7408 25.3125 12.1875C25.3125 10.6342 24.0533 9.375 22.5 9.375C20.9467 9.375 19.6875 10.6342 19.6875 12.1875C19.6875 13.7408 20.9467 15 22.5 15Z" fill="white"/>
</g>
<defs>
<clipPath id="clip0">
<rect width="45" height="45" fill="white"/>
</clipPath>
</defs>
</svg>
