<svg width="512" height="512" viewBox="0 0 512 512" fill="none" xmlns="http://www.w3.org/2000/svg">
<path d="M505.574 36.6599L110.696 431.43C119.233 435.591 128.597 437.778 138.093 437.827H205.721C211.379 437.812 216.806 440.061 220.795 444.074L257.445 480.703C277.32 500.715 304.353 511.979 332.557 512.001C344.202 511.99 355.767 510.081 366.797 506.351C404.824 493.884 432.484 460.919 438.157 421.304L510.199 79.1094C513.639 64.851 512.003 49.841 505.574 36.6599Z" fill="white" fill-opacity="0.9"/>
<path d="M433.51 1.65101L92.1476 73.5657C33.8207 81.5789 -6.96682 135.359 1.04636 193.685C4.21146 216.72 14.8201 238.089 31.2562 254.534L67.8852 291.163C71.8888 295.165 74.1364 300.596 74.1324 306.258V373.886C74.1814 383.382 76.3681 392.747 80.5286 401.283L475.341 6.40615C462.367 0.029982 447.584 -1.65001 433.51 1.65101Z" fill="white" fill-opacity="0.9"/>
</svg>
