<svg width="45" height="45" viewBox="0 0 45 45" fill="none" xmlns="http://www.w3.org/2000/svg">
<path d="M43.3481 1.65376C42.6759 0.973375 41.8395 0.477864 40.9199 0.215104C40.0002 -0.0476562 39.0283 -0.0687844 38.0981 0.153761L8.09811 6.47251C6.37044 6.70945 4.74324 7.42403 3.39974 8.53578C2.05625 9.64754 1.04983 11.1123 0.493817 12.7651C-0.0621923 14.418 -0.145704 16.1932 0.252686 17.8909C0.651077 19.5886 1.51554 21.1414 2.74874 22.3744L5.96999 25.5938C6.14433 25.7681 6.2826 25.975 6.37687 26.2028C6.47113 26.4306 6.51956 26.6747 6.51936 26.9213V32.8613C6.5235 33.6964 6.71576 34.52 7.08186 35.2706L7.06686 35.2838L7.11561 35.3325C7.66501 36.4371 8.56233 37.3305 9.66936 37.875L9.71811 37.9238L9.73124 37.9088C10.4819 38.2749 11.3054 38.4671 12.1406 38.4713H18.0806C18.5776 38.4709 19.0544 38.6678 19.4062 39.0188L22.6256 42.2381C23.4891 43.1112 24.5168 43.8047 25.6496 44.2787C26.7823 44.7527 27.9977 44.9979 29.2256 45C30.2489 44.9987 31.2652 44.8316 32.235 44.505C33.8727 43.9672 35.3276 42.9825 36.4354 41.662C37.5433 40.3414 38.2601 38.7375 38.505 37.0313L44.8331 6.96563C45.0672 6.02746 45.0534 5.04455 44.7931 4.11332C44.5327 3.18208 44.0348 2.33452 43.3481 1.65376ZM8.62499 22.9463L5.40186 19.7269C4.65134 18.9944 4.12531 18.0631 3.88553 17.0422C3.64574 16.0213 3.70214 14.9531 4.04811 13.9631C4.38354 12.9475 5.00362 12.0496 5.83461 11.3761C6.66559 10.7027 7.67251 10.2821 8.73561 10.1644L38.4375 3.91126L10.2656 32.0869V26.9213C10.2685 26.1831 10.1249 25.4518 9.84331 24.7695C9.5617 24.0872 9.14761 23.4675 8.62499 22.9463ZM34.8206 36.39C34.6766 37.4256 34.2469 38.4006 33.5796 39.2056C32.9122 40.0105 32.0337 40.6135 31.0427 40.9469C30.0517 41.2803 28.9874 41.3309 27.9692 41.093C26.9511 40.855 26.0194 40.338 25.2787 39.6L22.0537 36.375C21.5332 35.8516 20.914 35.4366 20.232 35.154C19.5501 34.8714 18.8188 34.7269 18.0806 34.7288H12.915L41.0906 6.56251L34.8206 36.39Z" fill="#212B36"/>
</svg>
