<svg width="512" height="512" viewBox="0 0 512 512" fill="none" xmlns="http://www.w3.org/2000/svg">
<path d="M83.1 374.7C93.1 365.8 117.2 347 191.9 312.9C192.5 312.6 193 312.4 193.6 312.1L209.5 305C210 304.8 210.6 304.5 211.1 304.3V324.6L214.9 357.6C233 352.4 256.2 346.9 256.2 346.9L296.6 360.8L300.8 324.6V304.4C302.2 305 303.7 305.7 305.1 306.3L308.6 307.9C314.1 310.3 319.3 312.7 324.3 315C396.3 348.1 419 366 428.8 374.8C432.2 377.8 435.3 382.5 438.1 388.4C459.3 355 471.6 315.4 471.6 272.9C471.7 153.6 375.1 57 256 57C136.9 57 40.3 153.6 40.3 272.8C40.3 315.3 52.6001 354.9 73.8001 388.3C76.6001 382.4 79.7 377.7 83.1 374.7Z" fill="#5B49F5"/>
<path d="M256.2 346.9C256.2 346.9 233.1 352.4 214.9 357.6L229.9 487C230.9 487.1 231.8 487.2 232.8 487.3L247.5 384.5H264.4L279.1 487.3C280 487.2 280.9 487.1 281.8 487L296.6 360.8L256.2 346.9Z" fill="white"/>
<path d="M215 357.6C233.1 352.4 256.3 346.9 256.3 346.9L296.7 360.8L300.9 324.6V304.4C300.2 304.1 299.5 303.8 298.8 303.5L214.2 302.9C213.2 303.4 212.2 303.8 211.1 304.3V324.6L215 357.6Z" fill="#474648"/>
<path d="M211.1 222.2V290.8V324.6C223.4 339.2 239.7 346.7 256 346.9V180.7C233.6 180.7 211.1 194.5 211.1 222.2Z" fill="#DCC5A1"/>
<path d="M256 180.7V346.9C272.3 347 288.5 339.7 300.9 324.6V290.8V222.2C300.9 194.5 278.4 180.7 256 180.7Z" fill="#EDD9B4"/>
<path d="M211.1 271.8V275C211.1 275 234 302.2 255.9 303.2C277.8 304.2 300.8 276.9 300.8 276.9V271.9" fill="#BC9F82"/>
<path fill-rule="evenodd" clip-rule="evenodd" d="M162.8 157.7C162.7 157.7 162.6 157.7 162.5 157.8C154.6 160.4 151.8 173.6 156.3 187.2C159 195.5 163.9 202.1 169 205.4C173 224.4 177.8 238.3 180 241.8C189.9 257.8 233.8 293 256.1 293V38.3C176.2 38.3 160.3 101.6 162.8 157.7Z" fill="#DCC5A1"/>
<path fill-rule="evenodd" clip-rule="evenodd" d="M349.4 157.9C351.9 101.7 336 38.3 256.1 38.3V293C278.4 293 322.3 257.8 332.2 241.8C334.4 238.2 339.3 224.2 343.3 204.9C348.2 201.5 352.7 195.1 355.3 187.2C359.8 173.7 357.1 160.7 349.4 157.9Z" fill="#EDD9B4"/>
<path d="M318 42.7C271.4 5.99998 199.4 27.9 177.7 58.5C150.5 96.8 160.1 154.8 166.6 198.5V198.3C166.7 198.7 166.8 199.2 166.9 199.7C167 200.1 167.8 201.1 167.9 201.3C168.1 201.7 169.8 201.3 170.4 201C170.6 200.9 170.7 200.6 170.7 200.4C171 196.5 170.7 188.9 170.7 188.8C170.2 182.8 168.9 177 168 171.1C172.4 143.6 185.3 137.8 192 104.6C193.4 102.4 195 100.2 196.6 98.1C198.5 95.7 200.4 93.4 202.6 91.3C203.8 90.6 204.9 89.8 206 89C231.1 79.8 257 90.8 280.6 100.5C289.7 104.2 299.8 108.6 309.8 107.8C314.1 107.5 317.3 104.7 317.7 101.1C329 135.1 338.4 150.8 343.9 175.7C343.1 180 342.3 184.3 342 188.8C342 188.9 341.8 196.5 342 200.4C342 200.6 342.1 200.9 342.3 201C342.9 201.3 344.5 201.7 344.8 201.3C344.9 201 345.7 200 345.8 199.7C346.2 198 346.3 196.6 346.4 195C346.7 192.8 347.1 190.5 347.4 188.1C354.4 161.1 367.7 54.3 318 42.7ZM247.3 78.7C246.5 78.5 245.8 78.2 245 78C246.2 78.3 247.3 78.6 248.5 78.9C248.1 78.9 247.7 78.8 247.3 78.7Z" fill="#231F20"/>
<g opacity="0.1">
<g opacity="0.1">
<path opacity="0.1" fill-rule="evenodd" clip-rule="evenodd" d="M247.6 384.5H264.4L264.5 385H247.5L247.6 384.5Z" fill="#010101"/>
</g>
</g>
<path d="M305.1 306.3L308.6 307.9C307.5 307.3 306.3 306.8 305.1 306.3Z" fill="#474648"/>
<path d="M193.6 312.1L209.5 305C204 307.4 198.7 309.8 193.6 312.1Z" fill="#474648"/>
<path d="M211.1 304.3L209.5 305C210.1 304.8 210.6 304.5 211.1 304.3Z" fill="#231F20"/>
<path d="M192 312.9C192.5 312.7 193.1 312.4 193.7 312.2L192 312.9Z" fill="#231F20"/>
<path d="M300.9 304.4C302.3 305 303.8 305.7 305.2 306.3L300.9 304.4Z" fill="#231F20"/>
<path d="M324.2 314.8L308.6 307.9C314.1 310.3 319.3 312.7 324.3 315L324.2 314.8Z" fill="#231F20"/>
<path d="M190 478.2L160.2 417.8L195.4 394.3L152.4 374.2L191.9 312.8C117.2 346.9 93.1 365.8 83.1 374.6C79.7 377.6 76.6 382.3 73.8 388.2C100.6 430.4 141.5 462.6 190 478.2Z" fill="#474648"/>
<path d="M428.9 374.7C419 366 396.4 348 324.4 314.9L359.4 374.2L316.4 394.3L351.6 417.8L321.8 478.3C370.3 462.8 411.4 430.5 438.2 388.3C435.4 382.4 432.3 377.7 428.9 374.7Z" fill="#474648"/>
<path d="M211.1 324.6V304.3C210.6 304.5 210 304.8 209.5 305L193.6 312.1C193 312.4 192.5 312.6 191.9 312.9L152.4 374.3L195.4 394.4L160.2 417.9L190 478.3C202.8 482.4 216.2 485.4 230 487L215 357.6L211.1 324.6Z" fill="#231F20"/>
<path d="M316.4 394.3L359.4 374.2L324.4 314.9C319.4 312.6 314.2 310.2 308.7 307.8L305.2 306.2C303.8 305.6 302.4 304.9 300.9 304.3V324.5L296.7 360.7L281.9 487C295.6 485.4 309 482.4 321.8 478.3L351.6 417.8L316.4 394.3Z" fill="#231F20"/>
<path d="M264.4 384.5L275.6 367.2L256.3 346.9L236.2 367.2L247.6 384.5L232.9 487.3C240.5 488.1 248.2 488.5 256 488.5C263.8 488.5 271.5 488.1 279.1 487.3L264.4 384.5Z" fill="#30A7DF"/>
<path fill-rule="evenodd" clip-rule="evenodd" d="M211.1 290.7L207.2 306L218.2 385.4L256.2 346.9L211.1 290.7Z" fill="#E7E7E7"/>
<path fill-rule="evenodd" clip-rule="evenodd" d="M300.9 290.7L304 305.8L293.6 386.2L256.2 346.9L300.9 290.7Z" fill="#E7E7E7"/>
</svg>
