<svg width="250" height="250" viewBox="0 0 250 250" fill="none" xmlns="http://www.w3.org/2000/svg">
<g clip-path="url(#clip0)">
<mask id="mask0" style="mask-type:alpha" maskUnits="userSpaceOnUse" x="16" y="-7" width="218" height="252">
<path d="M125 244.565C185.031 244.565 233.696 188.357 233.696 119.022C233.696 49.686 185.031 -6.52173 125 -6.52173C64.9694 -6.52173 16.3047 49.686 16.3047 119.022C16.3047 188.357 64.9694 244.565 125 244.565Z" fill="#5B49F5"/>
</mask>
<g mask="url(#mask0)">
<path d="M205.201 221.222V241.667C205.201 243.97 203.337 245.834 201.035 245.834H48.9671C46.6653 245.834 44.8008 243.97 44.8008 241.667V221.222C44.8008 199.771 62.1896 182.392 83.6457 182.387C91.2283 182.382 97.9047 178.482 101.748 172.565C105.609 166.632 105.211 161.472 105.211 157.301L105.289 157.109C86.5933 149.37 73.4436 130.95 73.4436 109.458V107.827C66.0199 107.827 60.4242 101.961 60.4242 95.0474V73.4038C60.2576 65.8682 60.6013 39.2928 79.7972 20.7895C102.118 -0.72385 137.489 1.03638 163.112 12.5455C163.944 12.9205 163.918 14.1132 163.075 14.4621L156.393 17.2117C155.393 17.6232 155.608 19.097 156.68 19.2115L159.925 19.5604C177.381 21.4249 191.905 31.8457 199.15 44.1934C199.217 44.3132 199.197 44.4694 199.098 44.5735C193.327 50.4583 190.099 58.3794 190.099 66.6285V94.2923C190.099 101.755 184.052 107.827 176.559 107.827V109.458C176.559 130.95 163.409 149.37 144.713 157.109L144.79 157.301C144.79 161.353 144.361 166.583 148.254 172.565C152.097 178.482 158.774 182.382 166.356 182.387C187.812 182.392 205.201 199.771 205.201 221.222Z" fill="#FFD6A6"/>
<path d="M199.147 44.1929C199.215 44.3111 199.195 44.4694 199.093 44.5725C193.327 50.4595 190.098 58.3815 190.098 66.6286V94.2924C190.098 101.754 184.052 107.827 176.558 107.827C176.558 92.0682 176.566 83.833 176.563 79.4059C176.561 76.6109 173.861 74.6022 171.189 75.424C162.793 78.0071 153 79.3381 142.707 77.1014C124.595 73.1643 119.464 66.0661 104.69 62.5197C88.1811 58.5617 73.2087 71.2062 73.3128 87.3816C73.3441 92.6988 73.4325 99.3439 73.443 107.827C66.0193 107.827 60.4235 101.961 60.4235 95.0475V73.4039C60.2569 65.8683 60.6006 39.2929 79.7965 20.7896C102.115 -0.724327 137.49 1.03695 163.109 12.5473C163.942 12.9216 163.92 14.1148 163.075 14.4626L156.392 17.2134C155.393 17.6248 155.604 19.0971 156.678 19.2122L159.924 19.5605C177.382 21.4271 191.905 31.8441 199.147 44.1929Z" fill="#42434D"/>
<path d="M171.19 75.4239C173.861 74.6022 176.561 76.6087 176.563 79.4032C176.567 83.9835 176.558 92.6362 176.558 109.458C176.558 130.95 163.408 149.37 144.712 157.109C110.904 171.142 73.4432 146.212 73.4432 109.458C73.4432 99.9526 73.3473 93.1997 73.313 87.3815C73.2089 71.2061 88.1813 58.5616 104.69 62.5196C119.465 66.0661 124.594 73.1642 142.706 77.1013C153 79.338 162.794 78.007 171.19 75.4239Z" fill="#FFDFBA"/>
<path d="M205.201 221.222V241.667C205.201 243.968 203.336 245.834 201.035 245.834H48.9671C46.6663 245.834 44.8008 243.968 44.8008 241.667V221.222C44.8008 199.771 62.1922 182.395 83.6431 182.387C91.2278 182.385 97.9057 178.479 101.748 172.565C115.161 184.024 134.834 184.03 148.254 172.565C152.096 178.479 158.774 182.385 166.359 182.387C187.81 182.395 205.201 199.771 205.201 221.222Z" fill="#42434D"/>
<path d="M104.629 194.967C102.703 195.574 100.638 195.908 98.4234 195.926C76.9172 196.116 59.3827 213.121 59.3827 234.628V238.542C59.3827 242.57 56.1184 245.834 52.0918 245.834H48.9671C46.6663 245.834 44.8008 243.968 44.8008 241.667V221.222C44.8008 199.771 62.1922 182.395 83.6431 182.387C91.2278 182.385 97.9057 178.479 101.748 172.565C103.297 173.888 104.955 175.077 106.702 176.118C114.385 180.697 113.161 192.285 104.629 194.967Z" fill="#4D4E59"/>
<path d="M145.373 194.967C147.299 195.574 149.364 195.908 151.578 195.926C173.085 196.116 190.62 213.121 190.62 234.628V238.542C190.62 242.57 193.884 245.834 197.91 245.834H201.035C203.336 245.834 205.201 243.968 205.201 241.667V221.222C205.201 199.771 187.81 182.395 166.359 182.387C158.774 182.385 152.096 178.479 148.254 172.565C146.705 173.888 145.047 175.077 143.3 176.118C135.617 180.697 136.842 192.285 145.373 194.967Z" fill="#2C2C33"/>
<path d="M145.379 165.852C132.549 171.223 118.449 171.64 104.623 165.852C105.329 162.923 105.211 161.025 105.211 157.301L105.289 157.109C117.831 162.314 132.147 162.325 144.713 157.109L144.79 157.301C144.79 161.026 144.674 162.924 145.379 165.852Z" fill="#F7C388"/>
<path d="M163.074 14.4621C158.164 16.4811 157.077 17.1925 154.823 16.8212C113.5 10.0188 80.962 31.6248 76.5104 73.846C76.4324 74.5871 76.2423 75.3146 75.9137 75.9833C72.7447 82.4347 73.3082 87.2091 73.3754 95.1469C73.4456 103.498 60.8616 104.032 60.4398 95.6921C60.4131 95.1713 60.4236 96.5441 60.4236 73.4038C60.2569 65.8682 60.6006 39.2928 79.7966 20.7895C102.117 -0.72385 137.488 1.03638 163.111 12.5455C163.943 12.9205 163.917 14.1132 163.074 14.4621Z" fill="#4D4E59"/>
<path d="M113.333 142.755C121.807 148.054 115.12 161.058 105.844 157.336C86.7956 149.691 73.4433 131.12 73.4433 109.458C73.4433 99.9416 73.3475 93.223 73.313 87.3821C73.2803 82.1529 74.8213 77.2935 77.4803 73.245C80.8227 68.1564 88.8922 70.3739 88.9364 76.9664C88.9709 82.8273 89.0666 89.5162 89.0666 99.0423C89.0661 118.049 99.0588 133.828 113.333 142.755Z" fill="#FFEBD2"/>
<path d="M209.367 221.223V245.834C209.367 248.135 207.502 250 205.201 250C202.9 250 201.035 248.135 201.035 245.834V221.223C201.035 202.061 185.528 186.554 166.365 186.554C157.298 186.554 149.071 181.935 144.358 174.197C143.161 172.233 143.784 169.668 145.749 168.472C147.713 167.274 150.276 167.897 151.474 169.863C154.662 175.098 160.229 178.222 166.365 178.222C190.133 178.221 209.367 197.454 209.367 221.223ZM131.706 176.277C122.985 178.178 114.133 176.249 107.11 171.427C108.314 168.762 109.054 165.893 109.289 162.922C145.001 173.434 180.724 146.482 180.724 109.458C180.724 74.1226 180.767 74.685 180.625 73.2362C180.076 67.4936 171.778 68.2748 172.333 74.0534C172.425 74.998 172.392 75.8244 172.392 109.457C172.392 135.588 151.133 156.848 125.001 156.848C98.869 156.848 77.6097 135.588 77.6097 109.457C77.6097 100.071 77.5097 92.8035 77.4769 87.3535C77.3926 73.6804 90.0366 63.2909 103.719 66.5707C123.016 71.1979 130.793 83.2341 155.527 82.0822C157.826 81.9743 159.602 80.024 159.493 77.7253C159.386 75.4272 157.448 73.6632 155.137 73.7591C132.839 74.8074 126.659 63.5039 105.662 58.4685C86.6785 53.9148 69.0283 68.358 69.1444 87.4051C69.1726 91.8348 69.2309 96.6864 69.2601 102.662C66.4864 101.216 64.5897 98.3472 64.5897 95.0475C64.5897 94.9522 64.5902 73.4071 64.5887 73.3123C64.3798 63.869 65.725 40.1408 82.6878 23.7893C101.64 5.52137 131.291 5.51459 154.347 13.5508L151.016 14.9215C147.04 16.5573 147.871 22.4572 152.159 22.9165L159.481 23.7008C173.576 25.21 186.04 32.5598 194.026 43.9804C188.785 50.349 185.931 58.2763 185.931 66.628V95.0469C185.931 97.3478 187.797 99.2133 190.098 99.2133C192.399 99.2133 194.264 97.3478 194.264 95.0469V66.628C194.264 59.3877 197.06 52.5634 202.137 47.4134C203.551 45.9813 203.724 43.67 202.738 42.079C194.431 28.758 182.072 20.1809 167.965 16.7405C170.248 14.7939 169.799 11.1771 167.158 9.84122C155.046 3.72364 137.768 -0.570711 121.326 0.0620357C79.7297 1.67437 55.3807 32.7389 56.2583 73.4503V95.048C56.2583 103.018 61.8347 109.716 69.32 111.515C70.0964 132.795 82.8596 151.067 101.046 159.763V160.859C101.046 170.464 93.2622 178.223 83.6372 178.223C59.8204 178.223 40.6348 197.502 40.6348 221.224V245.835C40.6348 248.135 42.5003 250 44.8012 250C47.1019 250 48.9673 248.135 48.9673 245.835V221.224C48.9673 202.063 64.4735 186.555 83.6372 186.555C90.7318 186.555 97.4879 183.712 102.486 178.355C111.367 184.418 122.519 186.808 133.48 184.418C135.728 183.929 137.154 181.709 136.664 179.461C136.174 177.212 133.953 175.786 131.706 176.277ZM167.184 228.648H154.686C152.385 228.648 150.519 230.513 150.519 232.814C150.519 235.115 152.385 236.98 154.686 236.98H167.184C169.485 236.98 171.35 235.115 171.35 232.814C171.35 230.513 169.485 228.648 167.184 228.648Z" fill="black"/>
</g>
</g>
<defs>
<clipPath id="clip0">
<rect width="250" height="250" fill="white"/>
</clipPath>
</defs>
</svg>