<svg width="483" height="483" viewBox="0 0 483 483" fill="none" xmlns="http://www.w3.org/2000/svg">
<g clip-path="url(#clip0)">
<path d="M155.504 204.774C159.904 233.374 182.004 269.774 218.304 282.574C233.204 287.774 249.504 287.874 264.404 282.474C300.104 269.574 322.904 233.274 327.404 204.774C332.204 204.374 338.504 197.674 345.304 173.574C354.604 140.674 344.704 135.774 336.304 136.574C337.904 132.074 339.104 127.474 339.904 123.074C354.104 37.774 312.104 34.874 312.104 34.874C312.104 34.874 305.104 21.474 286.804 11.374C274.504 4.07399 257.404 -1.52601 234.904 0.373993C227.604 0.673993 220.704 2.17399 214.204 4.27399C205.904 7.07399 198.304 11.174 191.404 15.974C183.004 21.274 175.004 27.874 168.004 35.374C156.904 46.774 147.004 61.474 142.704 79.774C139.104 93.474 139.904 107.774 142.904 123.174C143.704 127.674 144.904 132.174 146.504 136.674C138.104 135.874 128.204 140.774 137.504 173.674C144.404 197.674 150.704 204.374 155.504 204.774Z" fill="white" fill-opacity="0.9"/>
<path d="M406.404 316.674C355.304 303.674 313.804 274.474 313.804 274.474L281.404 376.974L275.304 396.274L275.204 395.974L269.904 412.374L252.804 363.874C294.804 305.274 244.304 305.874 241.504 305.974C238.704 305.874 188.204 305.274 230.204 363.874L213.104 412.374L207.804 395.974L207.704 396.274L201.604 376.974L169.104 274.474C169.104 274.474 127.604 303.674 76.5039 316.674C38.4039 326.374 36.6039 370.374 38.1039 392.074C38.1039 392.074 40.3039 421.574 42.5039 434.574C42.5039 434.574 116.904 482.874 241.504 482.974C366.104 482.974 440.504 434.574 440.504 434.574C442.704 421.574 444.904 392.074 444.904 392.074C446.304 370.374 444.504 326.374 406.404 316.674Z" fill="white" fill-opacity="0.9"/>
</g>
<defs>
<clipPath id="clip0">
<rect width="482.974" height="482.974" fill="white"/>
</clipPath>
</defs>
</svg>
