<svg width="150" height="85" viewBox="0 0 150 85" fill="none" xmlns="http://www.w3.org/2000/svg">
<path d="M0 0H150V60C150 65.5229 145.523 70 140 70H10C4.47715 70 0 65.5229 0 60V0Z" fill="#5B49F5"/>
<path d="M53.7608 71L47.5508 62.03H47.1828H40.6968V71H33.2448V38.8H47.1828C50.0348 38.8 52.5034 39.2753 54.5888 40.226C56.7048 41.1767 58.3301 42.526 59.4648 44.274C60.5994 46.022 61.1668 48.092 61.1668 50.484C61.1668 52.876 60.5841 54.946 59.4188 56.694C58.2841 58.4113 56.6588 59.73 54.5428 60.65L61.7648 71H53.7608ZM53.6228 50.484C53.6228 48.6747 53.0401 47.2947 51.8748 46.344C50.7094 45.3627 49.0074 44.872 46.7688 44.872H40.6968V56.096H46.7688C49.0074 56.096 50.7094 55.6053 51.8748 54.624C53.0401 53.6427 53.6228 52.2627 53.6228 50.484ZM77.6509 71.552C75.1056 71.552 72.6369 71.2147 70.2449 70.54C67.8836 69.8347 65.9823 68.93 64.5409 67.826L67.0709 62.214C68.4509 63.226 70.0916 64.0387 71.9929 64.652C73.8943 65.2653 75.7956 65.572 77.6969 65.572C79.8129 65.572 81.3769 65.2653 82.3889 64.652C83.4009 64.008 83.9069 63.1647 83.9069 62.122C83.9069 61.3553 83.6003 60.7267 82.9869 60.236C82.4043 59.7147 81.6376 59.3007 80.6869 58.994C79.7669 58.6873 78.5096 58.35 76.9149 57.982C74.4616 57.3993 72.4529 56.8167 70.8889 56.234C69.3249 55.6513 67.9756 54.716 66.8409 53.428C65.7369 52.14 65.1849 50.4227 65.1849 48.276C65.1849 46.4053 65.6909 44.7187 66.7029 43.216C67.7149 41.6827 69.2329 40.4713 71.2569 39.582C73.3116 38.6927 75.8109 38.248 78.7549 38.248C80.8096 38.248 82.8183 38.4933 84.7809 38.984C86.7436 39.4747 88.4609 40.18 89.9329 41.1L87.6329 46.758C84.6583 45.0713 81.6836 44.228 78.7089 44.228C76.6236 44.228 75.0749 44.5653 74.0629 45.24C73.0816 45.9147 72.5909 46.804 72.5909 47.908C72.5909 49.012 73.1583 49.84 74.2929 50.392C75.4583 50.9133 77.2216 51.4347 79.5829 51.956C82.0363 52.5387 84.0449 53.1213 85.6089 53.704C87.1729 54.2867 88.5069 55.2067 89.6109 56.464C90.7456 57.7213 91.3129 59.4233 91.3129 61.57C91.3129 63.41 90.7916 65.0967 89.7489 66.63C88.7369 68.1327 87.2036 69.3287 85.1489 70.218C83.0943 71.1073 80.5949 71.552 77.6509 71.552ZM102.626 44.872H92.3217V38.8H120.382V44.872H110.078V71H102.626V44.872Z" fill="white"/>
</svg>
