<svg width="250" height="250" viewBox="0 0 250 250" fill="none" xmlns="http://www.w3.org/2000/svg">
<g clip-path="url(#clip0)">
<path d="M125 244.565C182.029 244.565 228.261 195.901 228.261 135.87C228.261 75.8386 182.029 27.1739 125 27.1739C67.9706 27.1739 21.7391 75.8386 21.7391 135.87C21.7391 195.901 67.9706 244.565 125 244.565Z" fill="#5B49F5"/>
<mask id="mask0" style="mask-type:alpha" maskUnits="userSpaceOnUse" x="16" y="-7" width="218" height="252">
<path d="M125 244.565C185.031 244.565 233.696 188.357 233.696 119.022C233.696 49.686 185.031 -6.52174 125 -6.52174C64.9691 -6.52174 16.3044 49.686 16.3044 119.022C16.3044 188.357 64.9691 244.565 125 244.565Z" fill="#5B49F5"/>
</mask>
<g mask="url(#mask0)">
<path d="M205.2 221.222V241.667C205.2 243.97 203.336 245.834 201.034 245.834H48.9663C46.6645 245.834 44.8 243.97 44.8 241.667V221.222C44.8 199.771 62.1888 182.392 83.6449 182.387C91.2275 182.382 97.9039 178.482 101.747 172.565C105.608 166.632 105.21 161.472 105.21 157.301L105.288 157.109C86.5925 149.37 73.4428 130.95 73.4428 109.458V107.827C66.0191 107.827 60.4234 101.961 60.4234 95.0474V73.4038C60.2568 65.8682 60.6005 39.2928 79.7964 20.7895C102.117 -0.723884 137.488 1.03635 163.111 12.5455C163.943 12.9205 163.917 14.1132 163.074 14.4621L156.392 17.2117C155.392 17.6232 155.607 19.097 156.679 19.2115L159.924 19.5604C177.38 21.4249 191.904 31.8457 199.149 44.1934C199.216 44.3132 199.196 44.4694 199.097 44.5735C193.326 50.4583 190.098 58.3794 190.098 66.6285V94.2923C190.098 101.755 184.051 107.827 176.558 107.827V109.458C176.558 130.95 163.408 149.37 144.712 157.109L144.789 157.301C144.789 161.353 144.36 166.583 148.253 172.565C152.096 178.482 158.773 182.382 166.355 182.387C187.811 182.392 205.2 199.771 205.2 221.222Z" fill="#FFD6A6"/>
<path d="M199.147 44.1928C199.215 44.311 199.195 44.4693 199.093 44.5724C193.327 50.4594 190.098 58.3814 190.098 66.6285V94.2923C190.098 101.754 184.052 107.827 176.558 107.827C176.558 92.0681 176.566 83.8329 176.563 79.4058C176.561 76.6108 173.861 74.6021 171.189 75.4239C162.793 78.007 153 79.338 142.707 77.1013C124.595 73.1642 119.464 66.066 104.69 62.5196C88.1814 58.5616 73.209 71.2061 73.3132 87.3815C73.3445 92.6987 73.4329 99.3438 73.4434 107.827C66.0197 107.827 60.4239 101.961 60.4239 95.0474V73.4038C60.2573 65.8682 60.601 39.2928 79.7969 20.7895C102.115 -0.724406 137.49 1.03687 163.109 12.5472C163.942 12.9215 163.92 14.1147 163.075 14.4625L156.392 17.2133C155.393 17.6247 155.604 19.097 156.678 19.2121L159.924 19.5604C177.382 21.427 191.905 31.844 199.147 44.1928Z" fill="#42434D"/>
<path d="M171.189 75.4239C173.86 74.6022 176.56 76.6087 176.562 79.4032C176.566 83.9835 176.557 92.6362 176.557 109.458C176.557 130.95 163.407 149.37 144.711 157.109C110.903 171.142 73.4424 146.212 73.4424 109.458C73.4424 99.9526 73.3465 93.1997 73.3122 87.3815C73.2081 71.2061 88.1805 58.5616 104.689 62.5196C119.464 66.0661 124.593 73.1642 142.705 77.1013C152.999 79.338 162.793 78.007 171.189 75.4239Z" fill="#FFDFBA"/>
<path d="M205.2 221.222V241.667C205.2 243.968 203.335 245.834 201.034 245.834H48.9663C46.6655 245.834 44.8 243.968 44.8 241.667V221.222C44.8 199.771 62.1914 182.395 83.6423 182.387C91.227 182.385 97.9049 178.479 101.747 172.565C115.16 184.024 134.833 184.03 148.253 172.565C152.095 178.479 158.773 182.385 166.358 182.387C187.809 182.395 205.2 199.771 205.2 221.222Z" fill="#42434D"/>
<path d="M104.628 194.967C102.702 195.574 100.637 195.908 98.4226 195.926C76.9164 196.116 59.3819 213.121 59.3819 234.628V238.542C59.3819 242.57 56.1176 245.834 52.091 245.834H48.9663C46.6655 245.834 44.8 243.968 44.8 241.667V221.222C44.8 199.771 62.1914 182.395 83.6423 182.387C91.227 182.385 97.9049 178.479 101.747 172.565C103.296 173.888 104.954 175.077 106.701 176.118C114.384 180.697 113.16 192.285 104.628 194.967Z" fill="#4D4E59"/>
<path d="M145.372 194.967C147.298 195.574 149.363 195.908 151.577 195.926C173.084 196.116 190.619 213.121 190.619 234.628V238.542C190.619 242.57 193.883 245.834 197.909 245.834H201.034C203.335 245.834 205.2 243.968 205.2 241.667V221.222C205.2 199.771 187.809 182.395 166.358 182.387C158.773 182.385 152.095 178.479 148.253 172.565C146.704 173.888 145.046 175.077 143.299 176.118C135.616 180.697 136.841 192.285 145.372 194.967Z" fill="#2C2C33"/>
<path d="M145.378 165.852C132.548 171.223 118.448 171.64 104.622 165.852C105.328 162.923 105.21 161.025 105.21 157.301L105.288 157.109C117.83 162.314 132.146 162.325 144.712 157.109L144.789 157.301C144.789 161.026 144.673 162.924 145.378 165.852Z" fill="#F7C388"/>
<path d="M163.074 14.4621C158.164 16.4811 157.077 17.1925 154.823 16.8212C113.5 10.0188 80.9618 31.6248 76.5102 73.846C76.4322 74.5871 76.2421 75.3146 75.9135 75.9833C72.7445 82.4347 73.308 87.2091 73.3752 95.1469C73.4454 103.498 60.8614 104.032 60.4396 95.6921C60.4129 95.1713 60.4234 96.5441 60.4234 73.4038C60.2567 65.8682 60.6004 39.2928 79.7964 20.7895C102.117 -0.723884 137.488 1.03635 163.111 12.5455C163.943 12.9205 163.917 14.1132 163.074 14.4621Z" fill="#4D4E59"/>
<path d="M113.333 142.755C121.807 148.054 115.12 161.058 105.844 157.336C86.7957 149.691 73.4434 131.12 73.4434 109.458C73.4434 99.9416 73.3476 93.223 73.3131 87.3821C73.2804 82.1529 74.8214 77.2935 77.4804 73.245C80.8228 68.1564 88.8923 70.3739 88.9365 76.9664C88.971 82.8273 89.0667 89.5162 89.0667 99.0423C89.0662 118.049 99.0589 133.828 113.333 142.755Z" fill="#FFEBD2"/>
<path d="M209.366 221.223V245.834C209.366 248.135 207.501 250 205.2 250C202.899 250 201.034 248.135 201.034 245.834V221.223C201.034 202.061 185.527 186.554 166.364 186.554C157.297 186.554 149.07 181.935 144.357 174.197C143.16 172.233 143.783 169.668 145.748 168.472C147.712 167.274 150.275 167.897 151.473 169.863C154.661 175.098 160.228 178.222 166.364 178.222C190.132 178.221 209.366 197.454 209.366 221.223ZM131.705 176.277C122.984 178.178 114.132 176.249 107.109 171.427C108.313 168.762 109.053 165.893 109.288 162.922C145 173.434 180.723 146.482 180.723 109.458C180.723 74.1225 180.766 74.6849 180.624 73.2361C180.075 67.4935 171.777 68.2747 172.332 74.0533C172.424 74.9979 172.391 75.8243 172.391 109.457C172.391 135.588 151.132 156.848 125 156.848C98.8684 156.848 77.6091 135.588 77.6091 109.457C77.6091 100.071 77.5091 92.8034 77.4763 87.3534C77.392 73.6803 90.036 63.2908 103.718 66.5706C123.015 71.1978 130.792 83.234 155.526 82.0821C157.825 81.9742 159.601 80.0239 159.492 77.7252C159.385 75.4271 157.447 73.6631 155.136 73.759C132.838 74.8073 126.658 63.5038 105.661 58.4684C86.6779 53.9147 69.0277 68.3579 69.1438 87.405C69.172 91.8347 69.2303 96.6863 69.2595 102.662C66.4858 101.216 64.5891 98.3471 64.5891 95.0474C64.5891 94.9521 64.5896 73.407 64.5881 73.3122C64.3792 63.8689 65.7244 40.1407 82.6872 23.7892C101.639 5.52131 131.29 5.51453 154.346 13.5507L151.015 14.9214C147.039 16.5572 147.87 22.4571 152.158 22.9164L159.48 23.7007C173.575 25.2099 186.039 32.5597 194.025 43.9803C188.784 50.3489 185.93 58.2762 185.93 66.6279V95.0468C185.93 97.3477 187.796 99.2132 190.097 99.2132C192.398 99.2132 194.263 97.3477 194.263 95.0468V66.6279C194.263 59.3876 197.059 52.5633 202.136 47.4133C203.55 45.9812 203.723 43.6699 202.737 42.0789C194.43 28.7579 182.071 20.1808 167.964 16.7404C170.247 14.7938 169.798 11.177 167.157 9.84116C155.045 3.72358 137.767 -0.570772 121.325 0.0619747C79.7291 1.67431 55.3801 32.7388 56.2577 73.4502V95.0479C56.2577 103.018 61.8341 109.716 69.3194 111.515C70.0958 132.795 82.859 151.067 101.045 159.763V160.859C101.045 170.464 93.2616 178.223 83.6366 178.223C59.8198 178.223 40.6342 197.502 40.6342 221.224V245.835C40.6342 248.135 42.4997 250 44.8006 250C47.1013 250 48.9667 248.135 48.9667 245.835V221.224C48.9667 202.063 64.4729 186.555 83.6366 186.555C90.7312 186.555 97.4873 183.712 102.485 178.355C111.366 184.418 122.518 186.808 133.479 184.418C135.727 183.929 137.153 181.709 136.663 179.461C136.173 177.212 133.952 175.786 131.705 176.277ZM167.183 228.648H154.685C152.384 228.648 150.518 230.513 150.518 232.814C150.518 235.115 152.384 236.98 154.685 236.98H167.183C169.484 236.98 171.349 235.115 171.349 232.814C171.349 230.513 169.484 228.648 167.183 228.648Z" fill="black"/>
</g>
</g>
<defs>
<clipPath id="clip0">
<rect width="250" height="250" fill="white"/>
</clipPath>
</defs>
</svg>
