<svg width="150" height="96" viewBox="0 0 150 96" fill="none" xmlns="http://www.w3.org/2000/svg">
<path d="M148.628 93.6667H1.37219V1.37228H148.628V93.6667Z" fill="#1D2A30"/>
<path d="M148.628 93.6667V92.2945H2.74449V2.74454H147.256V93.6667H148.628V92.2945V93.6667H150V1.37231C150 1.01003 149.855 0.655983 149.599 0.400749C149.344 0.145508 148.99 6.10352e-05 148.628 6.10352e-05H1.37224C1.00997 6.10352e-05 0.658733 0.145508 0.400752 0.400749C0.145514 0.655983 0 1.01003 0 1.37231V93.6667C0 94.029 0.145514 94.383 0.400752 94.6382C0.658733 94.8934 1.00997 95.0389 1.37224 95.0389H148.628C148.99 95.0389 149.344 94.8934 149.599 94.6382C149.855 94.383 150 94.029 150 93.6667H148.628Z" fill="#1D2A30"/>
<path d="M148.628 15.4048H1.37219V1.37225H148.628V15.4048Z" fill="#5B49F5"/>
<path d="M148.628 15.405V14.0327H2.74449V2.74469H147.256V15.405H148.628V14.0327V15.405H150V1.37244C150 1.01017 149.855 0.65612 149.599 0.400883C149.344 0.145645 148.99 0.000198364 148.628 0.000198364H1.37224C1.00997 0.000198364 0.658733 0.145645 0.400752 0.400883C0.145514 0.65612 0 1.01017 0 1.37244V15.405C0 15.7645 0.145514 16.1186 0.400752 16.3738C0.658733 16.629 1.00997 16.7772 1.37224 16.7772H148.628C148.99 16.7772 149.344 16.629 149.599 16.3738C149.855 16.1186 150 15.7645 150 15.405H148.628Z" fill="#1D2A30"/>
<path d="M16.4012 28.6033H54.0391C54.7993 28.6033 55.4114 27.9885 55.4114 27.231C55.4114 26.4735 54.7993 25.8588 54.0391 25.8588H16.4012C15.641 25.8588 15.0289 26.4735 15.0289 27.231C15.0289 27.9885 15.641 28.6033 16.4012 28.6033Z" fill="white"/>
<path d="M35.2199 39.0981H100.363C101.121 39.0981 101.735 38.4861 101.735 37.7259C101.735 36.9684 101.121 36.3537 100.363 36.3537H35.2199C34.4624 36.3537 33.8477 36.9684 33.8477 37.7259C33.8477 38.4861 34.4624 39.0981 35.2199 39.0981Z" fill="white"/>
<path d="M26.896 48.8904H46.0773C46.8348 48.8904 47.4496 48.2757 47.4496 47.5182C47.4496 46.7607 46.8348 46.146 46.0773 46.146H26.896C26.1386 46.146 25.5238 46.7607 25.5238 47.5182C25.5238 48.2757 26.1386 48.8904 26.896 48.8904Z" fill="white"/>
<path d="M35.2199 60.4528H79.0961C79.8535 60.4528 80.4683 59.8381 80.4683 59.0806C80.4683 58.3231 79.8535 57.7083 79.0961 57.7083H35.2199C34.4624 57.7083 33.8477 58.3231 33.8477 59.0806C33.8477 59.8381 34.4624 60.4528 35.2199 60.4528Z" fill="white"/>
<path d="M16.4012 70.9478H54.0391C54.7993 70.9478 55.4114 70.333 55.4114 69.5755C55.4114 68.818 54.7993 68.2033 54.0391 68.2033H16.4012C15.641 68.2033 15.0289 68.818 15.0289 69.5755C15.0289 70.333 15.641 70.9478 16.4012 70.9478Z" fill="white"/>
</svg>
