<svg width="45" height="45" viewBox="0 0 45 45" fill="none" xmlns="http://www.w3.org/2000/svg">
<path d="M35.625 7.5H33.5625C33.1273 5.3839 31.9759 3.48252 30.3023 2.11635C28.6288 0.750169 26.5354 0.00272723 24.375 0L20.625 0C18.4646 0.00272723 16.3712 0.750169 14.6977 2.11635C13.0241 3.48252 11.8727 5.3839 11.4375 7.5H9.375C6.88951 7.50298 4.50667 8.49165 2.74916 10.2492C0.991654 12.0067 0.00297723 14.3895 0 16.875L0 35.625C0.00297723 38.1105 0.991654 40.4933 2.74916 42.2508C4.50667 44.0083 6.88951 44.997 9.375 45H35.625C38.1105 44.997 40.4933 44.0083 42.2508 42.2508C44.0083 40.4933 44.997 38.1105 45 35.625V16.875C44.997 14.3895 44.0083 12.0067 42.2508 10.2492C40.4933 8.49165 38.1105 7.50298 35.625 7.5V7.5ZM20.625 3.75H24.375C25.5342 3.75481 26.6637 4.11766 27.6088 4.78891C28.5539 5.46017 29.2686 6.40705 29.655 7.5H15.345C15.7314 6.40705 16.4461 5.46017 17.3912 4.78891C18.3363 4.11766 19.4658 3.75481 20.625 3.75V3.75ZM9.375 11.25H35.625C37.1168 11.25 38.5476 11.8426 39.6025 12.8975C40.6574 13.9524 41.25 15.3832 41.25 16.875V22.5H3.75V16.875C3.75 15.3832 4.34263 13.9524 5.39752 12.8975C6.45242 11.8426 7.88316 11.25 9.375 11.25V11.25ZM35.625 41.25H9.375C7.88316 41.25 6.45242 40.6574 5.39752 39.6025C4.34263 38.5476 3.75 37.1168 3.75 35.625V26.25H20.625V28.125C20.625 28.6223 20.8225 29.0992 21.1742 29.4508C21.5258 29.8025 22.0027 30 22.5 30C22.9973 30 23.4742 29.8025 23.8258 29.4508C24.1775 29.0992 24.375 28.6223 24.375 28.125V26.25H41.25V35.625C41.25 37.1168 40.6574 38.5476 39.6025 39.6025C38.5476 40.6574 37.1168 41.25 35.625 41.25Z" fill="white" fill-opacity="0.9"/>
</svg>
