<svg width="100" height="100" viewBox="0 0 100 100" fill="none" xmlns="http://www.w3.org/2000/svg">
<path d="M49.9938 1.04053C22.3875 1.04053 0 23.5155 0 51.2405C0 73.4155 14.325 92.228 34.2 98.8718C36.7 99.3343 37.6125 97.7843 37.6125 96.453C37.6125 95.2593 37.5687 92.103 37.5438 87.9155C23.6375 90.9468 20.7 81.1843 20.7 81.1843C18.4312 75.3843 15.15 73.8405 15.15 73.8405C10.6062 70.728 15.4875 70.7905 15.4875 70.7905C20.5062 71.1468 23.1438 75.9655 23.1438 75.9655C27.6063 83.6343 34.85 81.4218 37.7 80.1343C38.15 76.8905 39.4437 74.678 40.875 73.4218C29.775 72.153 18.1 67.8468 18.1 48.6155C18.1 43.1343 20.05 38.653 23.25 35.1405C22.7313 33.8718 21.0188 28.7655 23.7375 21.8593C23.7375 21.8593 27.9375 20.5093 37.4875 27.003C41.475 25.8905 45.75 25.3343 50.0063 25.3155C54.25 25.3405 58.5312 25.8905 62.525 27.0093C72.0687 20.5155 76.2625 21.8655 76.2625 21.8655C78.9875 28.778 77.275 33.878 76.7625 35.1468C79.9688 38.6593 81.9 43.1405 81.9 48.6218C81.9 67.903 70.2125 72.1468 59.075 73.3905C60.8687 74.9405 62.4688 78.003 62.4688 82.6843C62.4688 89.3968 62.4062 94.8093 62.4062 96.453C62.4062 97.7968 63.3062 99.3593 65.8438 98.8655C85.6875 92.2155 100 73.4093 100 51.2405C100 23.5155 77.6125 1.04053 49.9938 1.04053Z" fill="url(#paint0_linear)"/>
<defs>
<linearGradient id="paint0_linear" x1="-1.17639e-06" y1="1" x2="100" y2="99" gradientUnits="userSpaceOnUse">
<stop stop-color="#5B49F5"/>
<stop offset="1" stop-color="#8476FF"/>
</linearGradient>
</defs>
</svg>
