<svg width="100" height="100" viewBox="0 0 100 100" fill="none" xmlns="http://www.w3.org/2000/svg">
<g clip-path="url(#clip0)">
<path d="M50 0C40.111 0 30.444 2.93245 22.2215 8.42652C13.9991 13.9206 7.59043 21.7295 3.80605 30.8658C0.0216643 40.0021 -0.968503 50.0555 0.960758 59.7545C2.89002 69.4536 7.65206 78.3627 14.6447 85.3553C21.6373 92.348 30.5465 97.11 40.2455 99.0393C49.9446 100.969 59.9979 99.9784 69.1342 96.194C78.2705 92.4096 86.0794 86.001 91.5735 77.7785C97.0676 69.5561 100 59.8891 100 50C99.9857 36.7436 94.7132 24.0342 85.3395 14.6605C75.9658 5.28678 63.2564 0.0143378 50 0V0ZM50 91.6667C41.7591 91.6667 33.7033 89.223 26.8513 84.6446C19.9992 80.0662 14.6587 73.5587 11.505 65.9452C8.35139 58.3316 7.52625 49.9538 9.13397 41.8712C10.7417 33.7887 14.7101 26.3644 20.5372 20.5372C26.3644 14.71 33.7887 10.7417 41.8713 9.13395C49.9538 7.52623 58.3316 8.35137 65.9452 11.505C73.5588 14.6587 80.0662 19.9992 84.6446 26.8512C89.223 33.7033 91.6667 41.7591 91.6667 50C91.6546 61.047 87.2608 71.638 79.4494 79.4494C71.638 87.2608 61.047 91.6545 50 91.6667Z" fill="url(#paint0_linear)"/>
<path d="M50.0003 41.6665H45.8337C44.7286 41.6665 43.6688 42.1055 42.8874 42.8869C42.106 43.6683 41.667 44.7281 41.667 45.8332C41.667 46.9382 42.106 47.9981 42.8874 48.7795C43.6688 49.5609 44.7286 49.9998 45.8337 49.9998H50.0003V74.9999C50.0003 76.1049 50.4393 77.1648 51.2207 77.9462C52.0021 78.7276 53.0619 79.1665 54.167 79.1665C55.2721 79.1665 56.3319 78.7276 57.1133 77.9462C57.8947 77.1648 58.3336 76.1049 58.3336 74.9999V49.9998C58.3336 47.7897 57.4557 45.6701 55.8929 44.1073C54.3301 42.5445 52.2105 41.6665 50.0003 41.6665Z" fill="url(#paint1_linear)"/>
<path d="M50 33.3335C53.4518 33.3335 56.25 30.5353 56.25 27.0835C56.25 23.6317 53.4518 20.8335 50 20.8335C46.5482 20.8335 43.75 23.6317 43.75 27.0835C43.75 30.5353 46.5482 33.3335 50 33.3335Z" fill="url(#paint2_linear)"/>
</g>
<defs>
<linearGradient id="paint0_linear" x1="0" y1="0" x2="100" y2="100" gradientUnits="userSpaceOnUse">
<stop stop-color="#5B49F5"/>
<stop offset="1" stop-color="#8476FF"/>
</linearGradient>
<linearGradient id="paint1_linear" x1="1.5003" y1="-8.34267e-07" x2="100" y2="99" gradientUnits="userSpaceOnUse">
<stop stop-color="#5B49F5"/>
<stop offset="1" stop-color="#8476FF"/>
</linearGradient>
<linearGradient id="paint2_linear" x1="0.500002" y1="1" x2="99.5" y2="99.5" gradientUnits="userSpaceOnUse">
<stop stop-color="#5B49F5"/>
<stop offset="1" stop-color="#8476FF"/>
</linearGradient>
<clipPath id="clip0">
<rect width="100" height="100" fill="white"/>
</clipPath>
</defs>
</svg>
