<svg width="366" height="466" viewBox="0 0 366 466" fill="none" xmlns="http://www.w3.org/2000/svg">
<path d="M183.2 323.9C183.2 323.9 160.1 329.4 141.9 334.6L156.9 464C157.9 464.1 158.8 464.2 159.8 464.3L174.5 361.5H191.4L206.1 464.3C207 464.2 207.9 464.1 208.8 464L223.6 337.8L183.2 323.9Z" fill="white"/>
<path d="M142 334.6C160.1 329.4 183.3 323.9 183.3 323.9L223.7 337.8L227.9 301.6V281.4C227.2 281.1 226.5 280.8 225.8 280.5L141.2 279.9C140.2 280.4 139.2 280.8 138.1 281.3V301.6L142 334.6Z" fill="#474648"/>
<path d="M138.1 199.2V267.8V301.6C150.4 316.2 166.7 323.7 183 323.9V157.7C160.6 157.7 138.1 171.5 138.1 199.2Z" fill="#DCC5A1"/>
<path d="M183 157.7V323.9C199.3 324 215.5 316.7 227.9 301.6V267.8V199.2C227.9 171.5 205.4 157.7 183 157.7Z" fill="#EDD9B4"/>
<path d="M138.1 248.8V252C138.1 252 161 279.2 182.9 280.2C204.8 281.2 227.8 253.9 227.8 253.9V248.9" fill="#BC9F82"/>
<path fill-rule="evenodd" clip-rule="evenodd" d="M89.8 134.7C89.7 134.7 89.6 134.7 89.5 134.8C81.6 137.4 78.8 150.6 83.3 164.2C86 172.5 90.9 179.1 96 182.4C100 201.4 104.8 215.3 107 218.8C116.9 234.8 160.8 270 183.1 270V15.3C103.2 15.3 87.3 78.6 89.8 134.7Z" fill="#DCC5A1"/>
<path fill-rule="evenodd" clip-rule="evenodd" d="M276.4 134.9C278.9 78.7 263 15.3 183.1 15.3V270C205.4 270 249.3 234.8 259.2 218.8C261.4 215.2 266.3 201.2 270.3 181.9C275.2 178.5 279.7 172.1 282.3 164.2C286.8 150.7 284.1 137.7 276.4 134.9Z" fill="#EDD9B4"/>
<path d="M245 19.7C198.4 -17 126.4 4.89998 104.7 35.5C77.5 73.8 87.1 131.8 93.6 175.5V175.3C93.7 175.7 93.8 176.2 93.9 176.7C94 177.1 94.8 178.1 94.9 178.3C95.1 178.7 96.8 178.3 97.4 178C97.6 177.9 97.7 177.6 97.7 177.4C98 173.5 97.7 165.9 97.7 165.8C97.2 159.8 95.9 154 95 148.1C99.4 120.6 112.3 114.8 119 81.6C120.4 79.4 122 77.2 123.6 75.1C125.5 72.7 127.4 70.4 129.6 68.3C130.8 67.6 131.9 66.8 133 66C158.1 56.8 184 67.8 207.6 77.5C216.7 81.2 226.8 85.6 236.8 84.8C241.1 84.5 244.3 81.7 244.7 78.1C256 112.1 265.4 127.8 270.9 152.7C270.1 157 269.3 161.3 269 165.8C269 165.9 268.8 173.5 269 177.4C269 177.6 269.1 177.9 269.3 178C269.9 178.3 271.5 178.7 271.8 178.3C271.9 178 272.7 177 272.8 176.7C273.2 175 273.3 173.6 273.4 172C273.7 169.8 274.1 167.5 274.4 165.1C281.4 138.1 294.7 31.3 245 19.7ZM174.3 55.7C173.5 55.5 172.8 55.2 172 55C173.2 55.3 174.3 55.6 175.5 55.9C175.1 55.9 174.7 55.8 174.3 55.7Z" fill="#231F20"/>
<g opacity="0.1">
<g opacity="0.1">
<path opacity="0.1" fill-rule="evenodd" clip-rule="evenodd" d="M174.6 361.5H191.4L191.5 362H174.5L174.6 361.5Z" fill="#010101"/>
</g>
</g>
<path d="M232.1 283.3L235.6 284.9C234.5 284.3 233.3 283.8 232.1 283.3Z" fill="#474648"/>
<path d="M120.6 289.1L136.5 282C131 284.4 125.7 286.8 120.6 289.1Z" fill="#474648"/>
<path d="M138.1 281.3L136.5 282C137.1 281.8 137.6 281.5 138.1 281.3Z" fill="#231F20"/>
<path d="M119 289.9C119.5 289.7 120.1 289.4 120.7 289.2L119 289.9Z" fill="#231F20"/>
<path d="M227.9 281.4C229.3 282 230.8 282.7 232.2 283.3L227.9 281.4Z" fill="#231F20"/>
<path d="M251.2 291.8L235.6 284.9C241.1 287.3 246.3 289.7 251.3 292L251.2 291.8Z" fill="#231F20"/>
<path d="M117 455.2L87.2 394.8L122.4 371.3L79.4 351.2L118.9 289.8C44.2 323.9 20.1 342.8 10.1 351.6C6.70004 354.6 3.60005 359.3 0.800049 365.2C27.6 407.4 68.5 439.6 117 455.2Z" fill="#474648"/>
<path d="M355.9 351.7C346 343 323.4 325 251.4 291.9L286.4 351.2L243.4 371.3L278.6 394.8L248.8 455.3C297.3 439.8 338.4 407.5 365.2 365.3C362.4 359.4 359.3 354.7 355.9 351.7Z" fill="#474648"/>
<path d="M138.1 301.6V281.3C137.6 281.5 137 281.8 136.5 282L120.6 289.1C120 289.4 119.5 289.6 118.9 289.9L79.4 351.3L122.4 371.4L87.2 394.9L117 455.3C129.8 459.4 143.2 462.4 157 464L142 334.6L138.1 301.6Z" fill="#231F20"/>
<path d="M243.4 371.3L286.4 351.2L251.4 291.9C246.4 289.6 241.2 287.2 235.7 284.8L232.2 283.2C230.8 282.6 229.4 281.9 227.9 281.3V301.5L223.7 337.7L208.9 464C222.6 462.4 236 459.4 248.8 455.3L278.6 394.8L243.4 371.3Z" fill="#231F20"/>
<path d="M191.4 361.5L202.6 344.2L183.3 323.9L163.2 344.2L174.6 361.5L159.9 464.3C167.5 465.1 175.2 465.5 183 465.5C190.8 465.5 198.5 465.1 206.1 464.3L191.4 361.5Z" fill="#30A7DF"/>
<path fill-rule="evenodd" clip-rule="evenodd" d="M138.1 267.7L134.2 283L145.2 362.4L183.2 323.9L138.1 267.7Z" fill="#E7E7E7"/>
<path fill-rule="evenodd" clip-rule="evenodd" d="M227.9 267.7L231 282.8L220.6 363.2L183.2 323.9L227.9 267.7Z" fill="#E7E7E7"/>
</svg>
