<svg width="150" height="70" viewBox="0 0 150 70" fill="none" xmlns="http://www.w3.org/2000/svg">
<path d="M0 0H150V60C150 65.5228 145.523 70 140 70H10C4.47715 70 0 65.5228 0 60V0Z" fill="#5B49F5"/>
<path d="M53.7608 56L47.5508 47.03H47.1828H40.6968V56H33.2448V23.8H47.1828C50.0348 23.8 52.5034 24.2753 54.5888 25.226C56.7048 26.1767 58.3301 27.526 59.4648 29.274C60.5994 31.022 61.1668 33.092 61.1668 35.484C61.1668 37.876 60.5841 39.946 59.4188 41.694C58.2841 43.4113 56.6588 44.73 54.5428 45.65L61.7648 56H53.7608ZM53.6228 35.484C53.6228 33.6747 53.0401 32.2947 51.8748 31.344C50.7094 30.3627 49.0074 29.872 46.7688 29.872H40.6968V41.096H46.7688C49.0074 41.096 50.7094 40.6053 51.8748 39.624C53.0401 38.6427 53.6228 37.2627 53.6228 35.484ZM77.6509 56.552C75.1056 56.552 72.6369 56.2147 70.2449 55.54C67.8836 54.8347 65.9823 53.93 64.5409 52.826L67.0709 47.214C68.4509 48.226 70.0916 49.0387 71.9929 49.652C73.8943 50.2653 75.7956 50.572 77.6969 50.572C79.8129 50.572 81.3769 50.2653 82.3889 49.652C83.4009 49.008 83.9069 48.1647 83.9069 47.122C83.9069 46.3553 83.6003 45.7267 82.9869 45.236C82.4043 44.7147 81.6376 44.3007 80.6869 43.994C79.7669 43.6873 78.5096 43.35 76.9149 42.982C74.4616 42.3993 72.4529 41.8167 70.8889 41.234C69.3249 40.6513 67.9756 39.716 66.8409 38.428C65.7369 37.14 65.1849 35.4227 65.1849 33.276C65.1849 31.4053 65.6909 29.7187 66.7029 28.216C67.7149 26.6827 69.2329 25.4713 71.2569 24.582C73.3116 23.6927 75.8109 23.248 78.7549 23.248C80.8096 23.248 82.8183 23.4933 84.7809 23.984C86.7436 24.4747 88.4609 25.18 89.9329 26.1L87.6329 31.758C84.6583 30.0713 81.6836 29.228 78.7089 29.228C76.6236 29.228 75.0749 29.5653 74.0629 30.24C73.0816 30.9147 72.5909 31.804 72.5909 32.908C72.5909 34.012 73.1583 34.84 74.2929 35.392C75.4583 35.9133 77.2216 36.4347 79.5829 36.956C82.0363 37.5387 84.0449 38.1213 85.6089 38.704C87.1729 39.2867 88.5069 40.2067 89.6109 41.464C90.7456 42.7213 91.3129 44.4233 91.3129 46.57C91.3129 48.41 90.7916 50.0967 89.7489 51.63C88.7369 53.1327 87.2036 54.3287 85.1489 55.218C83.0943 56.1073 80.5949 56.552 77.6509 56.552ZM102.626 29.872H92.3217V23.8H120.382V29.872H110.078V56H102.626V29.872Z" fill="white"/>
</svg>
