<svg width="745" height="816" viewBox="0 0 745 816" fill="none" xmlns="http://www.w3.org/2000/svg">
<path d="M470.216 380.543L306.97 433.848L164.948 496.53L125.215 507.019C115.096 516.645 104.486 526.393 93.0102 536.264C80.4245 547.122 68.7025 556.995 59.6936 564.15C49.6997 572.048 34.8925 586.854 27.3664 596.23C16.1372 610.296 7.25338 625.226 3.428 636.703C-3.35904 657.433 -0.025859 678.409 13.0532 697.783C29.8341 722.46 63.2737 747.631 102.264 764.782C122.131 773.545 155.569 784.772 180.74 791.064C222.569 801.677 303.514 813.152 348.057 814.881C357.063 815.251 369.157 815.251 369.649 814.881C370.637 814.262 377.547 801.06 385.569 784.65C412.962 728.753 432.704 676.312 443.438 631.522C449.854 604.377 454.912 568.223 458.243 525.408C459.108 513.438 459.477 473.336 458.737 459.762C457.625 437.553 455.651 419.539 452.569 401.893C452.075 399.301 451.95 396.957 452.198 396.834C452.69 396.464 454.17 395.971 474.283 390.17L470.213 380.547V380.544H470.216V380.543ZM432.952 402.384C434.432 402.384 438.38 440.264 439.366 464.204C439.614 469.262 439.489 472.594 439.243 472.594C438.257 472.594 418.39 460.873 404.203 451.989C391.863 444.215 368.419 428.667 364.718 425.706C363.482 424.843 363.604 424.72 373.724 421.264C390.874 415.463 431.595 402.384 432.952 402.384V402.384ZM349.786 429.778C350.897 429.778 353.733 431.38 360.52 435.576C385.938 451.494 420.489 470.743 435.296 477.161C439.86 479.134 440.352 478.393 429.866 485.551C407.409 500.851 379.398 515.904 345.095 531.081C339.05 533.796 333.991 535.893 333.868 535.893C333.623 535.893 334.361 532.81 335.347 529.107C343.614 498.381 348.304 467.287 348.552 442.362C348.675 430.022 348.675 430.022 349.786 429.654C349.538 429.778 349.661 429.778 349.786 429.778V429.778ZM332.635 436.317C333.373 437.056 332.881 464.697 331.893 472.223C329.673 490.238 326.218 507.019 320.544 525.899C319.186 530.462 317.95 534.289 317.706 534.535C317.21 535.151 300.305 518.617 294.753 512.201C285.128 501.096 277.603 489.99 272.05 479.133C269.212 473.58 264.771 462.723 265.14 462.352C267.114 460.995 332.142 435.824 332.635 436.317ZM251.936 468.028C252.059 468.028 252.182 468.028 252.307 468.15C252.553 468.397 253.419 470.372 254.159 472.593C258.106 483.328 266.989 499.122 274.641 509.24C283.032 520.346 294.015 532.19 303.143 539.964C306.106 542.432 308.819 544.775 309.188 545.146C309.93 545.887 310.176 545.763 290.063 553.414C266.745 562.298 241.325 571.182 212.204 580.559C205.247 582.801 198.297 585.064 191.354 587.346C190.242 587.717 190.613 587.099 193.821 582.041C208.257 559.46 230.219 515.163 242.559 483.821C244.657 478.392 246.755 472.964 247.126 471.729C247.619 470.001 248.235 469.385 249.839 468.52C250.702 468.276 251.567 468.028 251.936 468.028V468.028ZM227.261 478.269C227.63 478.517 221.337 491.718 215.167 503.811C203.198 527.131 190.119 550.084 172.597 577.969C169.636 582.781 166.799 587.224 166.428 587.717C165.812 588.582 165.564 588.334 163.59 584.509C159.395 576.242 155.939 565.629 154.088 555.881C152.237 546.256 152.608 529.476 154.706 519.112C156.309 511.462 156.187 511.586 159.888 509.734C175.682 501.714 226.767 477.776 227.261 478.269V478.269ZM440.108 486.908V492.089C440.108 519.606 437.147 557.363 432.827 584.88C432.086 589.692 431.467 593.639 431.346 593.764C431.346 593.764 427.768 592.778 423.573 591.542C405.065 585.742 384.952 577.228 366.813 567.236C354.842 560.695 337.446 549.959 337.94 549.465C338.061 549.343 343.245 546.628 349.29 543.42C373.478 530.834 396.673 517.261 416.786 503.812C424.313 498.752 435.663 490.61 438.134 488.388L440.108 486.908ZM134.099 523.429C134.592 523.429 134.469 524.416 133.728 528.858C133.235 532.067 132.618 537.99 132.373 542.06C131.384 560.076 134.347 573.403 143.231 591.664C145.698 596.723 147.674 600.919 147.549 601.041C146.685 601.782 65.0018 625.721 39.3347 632.754C31.6851 634.85 25.0232 636.702 24.5271 636.824C23.665 637.072 23.541 636.949 23.9108 634.849C26.7485 616.712 40.5689 593.021 59.817 573.031C72.6503 559.705 82.8922 551.932 100.413 541.936C112.999 534.781 132.371 524.047 133.852 523.552C133.853 523.429 133.976 523.429 134.099 523.429V523.429ZM326.589 557.855C326.712 557.732 329.673 559.337 333.251 561.434C359.657 576.735 396.427 590.925 427.766 598.205L430.606 598.822L426.656 601.041C410.246 610.173 356.325 632.629 301.17 653.237C293.149 656.196 285.253 659.159 283.77 659.775C282.289 660.392 280.932 660.763 280.932 660.64C280.932 660.515 283.154 656.196 285.99 650.892C301.414 622.018 316.962 586.852 324.859 562.421C325.848 560.076 326.464 557.98 326.589 557.855V557.855ZM306.97 564.272C307.095 564.398 306.106 566.987 304.872 569.948C294.138 595.983 280.069 624.365 262.055 656.199C257.49 664.343 253.664 670.883 253.539 670.883C253.418 670.883 249.715 668.661 245.273 665.947C219.113 649.906 195.917 630.164 180.741 611.038L178.519 608.323L189.746 605.238C229.972 594.257 264.15 582.412 298.084 567.852C302.897 565.877 306.847 564.272 306.97 564.272V564.272ZM428.88 606.842C428.88 606.842 429.003 606.965 428.88 606.842C429.002 609.68 422.709 635.099 417.526 653.482C413.208 668.906 409.505 681 402.72 702.345C399.759 711.725 397.169 719.496 397.044 719.496C396.921 719.496 396.181 719.373 395.441 719.128C358.794 712.463 325.972 703.209 295.124 690.871C286.486 687.415 274.147 681.862 273.407 681.246C273.161 680.996 280.565 677.544 289.942 673.471C346.085 648.917 404.325 621.03 424.313 609.063C426.657 607.582 428.509 606.842 428.88 606.842V606.842ZM147.426 616.467C147.673 616.713 132.002 639.294 110.038 670.018C102.388 680.753 93.5041 693.338 90.1732 698.027C86.8411 702.716 81.7827 710.12 78.9445 714.562L73.7598 722.583L68.2069 717.894C61.6668 712.464 50.3164 700.866 45.2574 694.449C34.645 681.248 27.4899 667.305 24.6517 654.596C23.2941 648.673 23.294 645.71 24.5265 645.342C26.3769 644.848 59.3225 637.074 90.172 629.916C107.323 625.969 127.188 621.28 134.345 619.553C141.502 617.823 147.303 616.467 147.426 616.467V616.467ZM163.219 622.513L167.166 626.955C184.937 646.821 203.075 661.507 225.038 674.337C228.988 676.559 231.948 678.532 231.7 678.658C230.839 679.274 155.445 706.047 120.526 718.14C100.908 725.049 84.7426 730.602 84.6209 730.602C84.498 730.602 83.3867 729.863 82.1508 728.998L79.9312 727.394L83.5091 722.212C95.107 705.431 109.669 687.046 141.38 648.795L163.219 622.513ZM261.686 692.968C261.807 692.846 267.237 694.818 273.899 697.289C289.942 703.334 302.649 707.158 319.679 711.478C340.656 716.784 371.009 721.967 388.902 723.447C391.616 723.692 393.097 723.94 392.603 724.311C391.737 724.805 373.601 730.851 360.275 735.046C339.05 741.708 274.271 760.833 221.46 776.011C211.712 778.849 203.321 781.194 202.828 781.316C201.595 781.564 197.522 780.452 197.522 779.959C197.522 779.713 200.483 775.888 204.062 771.693C221.829 750.469 239.475 726.779 254.159 704.321C258.23 698.15 261.686 693.092 261.686 692.968ZM239.968 693.587C240.09 693.709 231.331 707.775 216.032 731.959C209.491 742.201 202.21 753.799 199.619 757.872C197.151 761.82 193.45 767.991 191.353 771.445L187.774 777.738L185.923 777.244C181.48 776.01 150.263 765.027 141.995 761.696C131.753 757.624 121.142 752.69 113.244 748.495C103.375 743.188 91.0363 735.29 92.0224 735.045C92.2688 734.922 109.174 730.355 129.532 724.804C183.578 710.118 213.561 701.605 233.182 695.436C236.761 694.326 239.845 693.461 239.968 693.587ZM393.589 729.615H393.712C394.206 730.85 374.218 786.375 366.935 803.896C365.333 807.844 364.718 808.833 363.853 808.707C361.755 808.586 332.759 804.514 315.112 801.922C284.389 797.233 232.811 788.224 219.856 785.264L216.895 784.648L235.278 780.45C274.764 771.566 293.766 766.755 313.014 760.832C337.323 753.429 361.385 744.174 385.692 732.823C389.517 731.095 392.725 729.738 393.589 729.615Z" fill="url(#paint0_linear)"/>
<path d="M301.911 0.0063199C299.197 -0.361823 255.391 15.4319 227.136 26.9058C189.007 42.4549 159.395 57.2625 141.133 70.0923C134.348 74.9066 125.832 83.4195 124.477 86.7504C123.983 87.9845 123.735 89.4651 123.735 90.9456L140.27 106.616L179.631 119.202L273.285 135.984L380.387 154.369L381.498 145.115C381.129 145.115 380.88 144.992 380.513 144.992L366.443 142.77L363.607 137.712C349.047 112.046 333.006 80.2109 323.629 58.7408C316.35 42.0827 309.439 22.8357 305.613 9.01529C303.515 0.624819 303.269 0.131499 301.914 0.00859465V0.00574687H301.911V0.0063199ZM299.935 6.30117H300.061C300.183 6.42294 300.676 9.88018 301.171 13.9497C303.267 31.2268 307.095 47.882 313.14 65.8977C317.704 79.4712 317.704 78.7315 312.4 77.1263C299.814 73.6725 243.425 63.9244 202.583 58.2486C196.043 57.3843 190.49 56.5211 190.49 56.3982C189.996 55.9049 219.979 40.2329 233.182 34.065C250.087 26.2896 296.481 6.9174 299.935 6.30117V6.30117ZM180.987 61.5795L185.801 63.1818C211.958 72.0673 277.724 84.6536 314.002 87.6147C318.073 87.9851 321.53 88.3561 321.651 88.3561C321.774 88.479 318.321 90.3299 313.878 92.4267C296.358 101.188 277.109 111.923 263.782 120.191C259.835 122.657 256.255 124.633 255.762 124.633C255.269 124.633 252.678 124.139 249.964 123.768L245.028 123.027L232.691 110.934C210.974 89.8355 193.945 73.5484 187.405 67.3776L180.987 61.5795V61.5795ZM176.053 65.4038L193.451 87.1214C202.951 99.0903 212.575 110.812 214.675 113.402C216.771 115.995 218.499 118.093 218.376 118.216C217.882 118.586 193.206 113.773 180.125 110.813C166.675 107.727 161.123 106.247 152.856 103.656L146.069 101.435V99.7059C146.192 91.4384 156.681 79.1002 174.449 66.5156L176.053 65.4038ZM323.874 95.0179C324.369 95.0179 324.984 96.1281 326.464 99.4596C330.659 108.713 343.741 133.639 346.946 138.451C347.936 140.057 349.661 140.179 332.265 137.341C290.437 130.553 276.986 128.335 276.986 128.088C276.986 127.965 278.22 127.1 279.824 126.236C292.78 119.081 305.859 109.949 317.459 100.201C320.297 97.8561 322.888 95.6353 323.38 95.2643C323.503 95.0179 323.751 94.895 323.874 95.0179Z" fill="url(#paint1_linear)"/>
<path d="M125.337 85.0229C125.337 85.0229 122.624 89.3433 125.215 95.7599C126.821 99.7071 131.509 104.519 136.813 109.455C136.813 109.455 191.722 163.006 198.386 170.657C228.738 205.699 241.942 240.249 243.176 287.878C243.916 318.479 238.115 345.378 223.68 376.596C198.015 432.616 143.845 494.435 60.3103 563.04L72.5279 558.968C80.4244 553.044 91.1598 546.753 116.331 532.933C174.447 501.096 239.844 471.853 320.049 441.746C435.539 398.311 625.439 347.474 733.527 330.941L744.758 329.213L743.029 326.498C733.16 311.197 726.371 301.697 718.226 291.579C694.537 262.212 665.789 238.399 630.621 218.655C582.252 191.634 519.691 170.534 440.476 154.864C425.546 151.901 392.724 146.226 366.072 142.154C309.558 133.395 273.035 127.348 232.811 120.438C218.375 117.969 196.78 114.268 182.467 111.184C175.063 109.579 160.875 106.248 149.77 102.423C140.886 98.9662 128.052 95.5113 125.337 85.0229V85.0229ZM157.174 115.872C157.296 115.75 159.27 116.488 161.863 117.352C166.551 118.955 172.597 120.806 179.755 122.782C185.171 124.271 190.6 125.711 196.042 127.1C203.446 128.95 209.614 130.678 209.737 130.678C210.603 131.542 223.065 171.394 227.261 186.695C228.862 192.496 230.099 197.431 229.975 197.431C229.848 197.556 228.493 195.457 226.89 192.619C212.452 167.2 189.625 141.412 163.219 120.682C159.766 118.216 157.174 115.995 157.174 115.872ZM217.882 132.653C218.499 132.653 221.214 133.023 224.544 133.763C245.52 138.451 283.155 145.608 307.215 149.681C311.288 150.297 314.497 151.039 314.497 151.284C314.497 151.532 313.015 152.394 311.163 153.383C307.093 155.479 290.681 165.226 285.253 168.929C271.556 178.06 259.218 187.931 250.333 196.814C246.755 200.393 243.669 203.354 243.669 203.354C243.669 203.354 242.931 201.258 242.311 198.665C237.872 181.513 228.616 156.094 220.225 138.204C218.868 135.367 217.757 132.775 217.757 132.529C217.757 132.776 217.757 132.653 217.882 132.653V132.653ZM324.737 153.012C325.477 153.258 326.712 157.454 329.179 166.707C333.745 184.6 335.843 204.589 335.103 223.221C334.855 228.403 334.609 233.215 334.361 233.833L333.991 235.066L327.575 232.969C314.372 228.774 292.903 222.48 274.519 217.298C264.029 214.46 255.517 211.869 255.517 211.623C255.517 210.881 270.818 195.581 277.357 189.783C289.817 178.799 323.626 152.641 324.737 153.012V153.012ZM333.251 154.245C333.622 153.876 384.335 162.635 407.409 167.078C424.562 170.409 449.486 175.592 450.966 176.21C451.706 176.455 449.114 177.936 440.847 181.637C408.273 196.322 384.087 209.523 360.028 225.565C353.735 229.761 348.429 233.215 348.306 233.215C348.183 233.215 348.059 229.638 348.059 225.318C348.059 201.875 343.37 178.184 334.731 158.195C333.868 156.22 333.128 154.37 333.251 154.245V154.245ZM464.415 180.158C464.786 180.528 463.181 190.523 461.7 196.445C457.258 214.831 445.29 242.102 430.608 267.765C428.015 272.331 425.671 276.033 425.422 276.156C425.178 276.279 421.846 274.427 418.02 272.206C403.707 263.816 387.42 255.919 369.651 248.515C364.717 246.418 360.397 244.689 360.274 244.445C359.409 243.703 399.141 217.421 420.118 204.836C436.776 194.718 463.921 179.664 464.415 180.158V180.158ZM473.792 181.638C474.903 181.638 497.36 187.808 509.081 191.263C538.079 199.901 571.393 212.116 593.11 221.987L602.116 226.06L595.825 227.54C542.769 239.754 497.36 253.823 453.556 271.591C449.977 273.071 446.769 274.305 446.525 274.305C446.277 274.305 447.511 271.468 449.115 268.012C462.318 240.003 470.832 210.759 472.927 185.833C473.053 183.488 473.421 181.638 473.792 181.638V181.638ZM250.21 232.969C250.579 232.598 267.731 236.671 276.985 239.26C291.052 243.21 320.911 253.203 320.911 253.945C320.911 254.068 317.581 256.906 313.634 260.362C297.469 273.811 281.921 287.999 263.288 306.015C257.735 311.323 253.048 315.641 252.802 315.641C252.554 315.641 252.433 314.899 252.554 313.912C255.391 293.182 254.776 266.53 250.827 239.508C250.456 236.052 250.087 233.092 250.21 232.969V232.969ZM610.633 233.34C610.878 233.585 602.735 246.418 597.553 253.697C590.151 264.309 579.29 278.378 554.735 309.225C541.782 325.511 527.219 343.897 522.409 350.066C517.471 356.236 513.401 361.417 513.276 361.417C513.153 361.417 511.551 359.197 509.823 356.483C496.002 335.753 479.467 317.614 459.848 301.327C456.147 298.241 452.077 294.91 450.719 293.923C449.361 292.936 448.25 291.949 448.25 291.826C448.25 291.457 469.224 282.447 485.144 276.032C513.031 264.68 551.031 251.107 579.537 242.346C594.468 237.658 610.385 233.092 610.633 233.34V233.34ZM620.133 235.806C620.626 235.684 623.588 237.164 627.167 239.26C657.151 256.411 686.516 278.499 709.716 301.204C716.255 307.621 732.419 324.402 732.171 324.525C732.171 324.525 726.495 325.018 719.833 325.511C667.886 329.461 601.38 340.441 537.462 355.864C533.144 356.85 529.32 357.714 529.072 357.714C528.828 357.714 533.638 352.903 539.685 347.104C577.195 310.951 594.347 288.124 614.582 247.404C617.419 241.36 619.888 236.177 620.133 235.806C620.011 235.806 620.011 235.806 620.133 235.806V235.806ZM345.343 263.941C347.071 264.309 363.112 271.839 375.204 277.883C386.309 283.434 402.968 292.32 403.831 293.059C403.954 293.182 398.03 296.267 390.753 299.846C367.554 311.444 347.689 322.425 326.958 335.011C321.036 338.59 316.1 341.553 315.977 341.553C315.483 341.553 315.606 341.057 318.938 335.011C330.044 314.777 338.927 290.592 343.988 267.024C344.479 265.173 344.974 263.941 345.343 263.941V263.941ZM329.302 266.901C329.673 267.272 325.477 282.448 322.887 290.715C317.827 306.386 309.313 326.005 301.047 340.812C299.071 344.265 296.11 349.325 294.506 352.162L291.422 357.098L284.512 350.436C276.493 342.662 269.952 337.85 261.563 333.53C258.229 331.804 255.639 330.322 255.639 330.077C255.639 329.09 276.739 309.965 292.903 296.145C304.501 286.15 328.932 266.531 329.302 266.901V266.901ZM427.4 307.25L433.446 311.198C447.263 320.207 463.55 332.174 476.015 342.662C483.046 348.46 496.618 360.678 499.335 363.639L500.814 365.245L490.821 368.082C434.308 383.751 390.628 397.694 339.667 416.451C333.991 418.547 329.179 420.275 328.808 420.275C328.07 420.275 327.451 420.891 340.162 409.169C372.737 379.187 401.609 346.117 423.08 313.912L427.4 307.25V307.25ZM401.61 313.666C401.856 313.912 384.952 337.726 374.833 351.176C362.741 367.217 341.271 394.116 326.464 411.636C320.296 418.917 314.991 424.963 314.743 425.087C314.372 425.21 314.249 423.359 314.249 420.521C314.249 405.59 310.425 389.672 303.761 376.101C300.923 370.425 300.429 369.067 301.048 368.451C303.392 366.352 339.298 345.87 362.001 333.655C377.301 325.511 401.237 313.419 401.61 313.666V313.666ZM245.643 351.917C246.014 351.917 248.852 353.397 252.061 355.125C259.958 359.444 266.991 364.256 273.284 369.439C273.529 369.685 270.323 372.277 266.127 375.36C254.405 383.751 236.637 397.201 226.274 405.469C215.413 414.106 215.045 414.353 216.278 412.502C224.422 400.039 228.492 393.006 232.813 383.999C236.637 375.98 240.461 366.478 243.176 358.211C244.163 354.632 245.397 351.917 245.643 351.917ZM287.227 384.492C287.843 384.37 288.585 385.479 291.915 390.415C298.948 400.902 304.378 414.97 305.737 426.322L305.981 428.791L289.079 435.331C258.846 447.051 230.962 458.651 212.081 467.287C206.777 469.756 197.522 474.197 191.477 477.16C185.43 480.243 180.494 482.588 180.494 482.465C180.494 482.342 184.319 479.504 189.007 476.048C225.904 449.273 257.86 419.905 281.798 390.539C284.389 387.453 286.735 384.615 286.979 384.492L287.227 384.492V384.492ZM268.102 389.181C268.596 389.675 254.53 405.591 244.905 415.339C221.091 439.648 197.523 458.651 168.279 477.16C164.577 479.504 161.246 481.601 160.875 481.849C160.011 482.342 161.121 481.107 173.954 467.164C182.099 458.403 188.268 451 195.301 441.87C199.99 435.825 200.854 434.961 207.641 430.146C225.78 417.067 267.608 388.687 268.102 389.181Z" fill="url(#paint2_radial)"/>
<defs>
<linearGradient id="paint0_linear" x1="122.816" y1="734.523" x2="181.846" y2="699.643" gradientUnits="userSpaceOnUse">
<stop stop-color="#909CA9"/>
<stop offset="1" stop-color="#CACACA"/>
</linearGradient>
<linearGradient id="paint1_linear" x1="124.168" y1="76.9464" x2="171.665" y2="76.9464" gradientUnits="userSpaceOnUse">
<stop stop-color="#939FAB"/>
<stop offset="1" stop-color="#CACACA"/>
</linearGradient>
<radialGradient id="paint2_radial" cx="0" cy="0" r="1" gradientUnits="userSpaceOnUse" gradientTransform="translate(363.837 294.781) rotate(-171.457) scale(61.2365 122.503)">
<stop stop-color="#EE352C"/>
<stop offset="1" stop-color="#A91D22"/>
</radialGradient>
</defs>
</svg>
