<svg width="87" height="77" viewBox="0 0 87 77" fill="none" xmlns="http://www.w3.org/2000/svg">
<g filter="url(#filter0_d)">
<path d="M5.57662 33.2344L23.6982 39.9979L30.7124 62.5554C31.1612 64.0001 32.9278 64.5341 34.1005 63.5754L44.2017 55.3407C45.2606 54.4779 46.7687 54.4349 47.8753 55.2382L66.0944 68.4656C67.3488 69.3774 69.1259 68.69 69.4405 67.1743L82.787 2.97533C83.1304 1.31957 81.5035 -0.0617179 79.9269 0.54805L5.55538 29.2383C3.72005 29.9462 3.73604 32.5446 5.57662 33.2344ZM29.582 36.3975L64.9983 14.5845C65.6348 14.1936 66.2897 15.0543 65.7431 15.5613L36.5144 42.7308C35.487 43.6872 34.8243 44.967 34.6366 46.3562L33.6409 53.7347C33.509 54.7199 32.1251 54.8177 31.8533 53.8642L28.024 40.4092C27.5854 38.8746 28.2246 37.2353 29.582 36.3975Z" fill="white"/>
</g>
<defs>
<filter id="filter0_d" x="0.1875" y="0.401123" width="86.6465" height="76.4744" filterUnits="userSpaceOnUse" color-interpolation-filters="sRGB">
<feFlood flood-opacity="0" result="BackgroundImageFix"/>
<feColorMatrix in="SourceAlpha" type="matrix" values="0 0 0 0 0 0 0 0 0 0 0 0 0 0 0 0 0 0 127 0" result="hardAlpha"/>
<feOffset dy="4"/>
<feGaussianBlur stdDeviation="2"/>
<feComposite in2="hardAlpha" operator="out"/>
<feColorMatrix type="matrix" values="0 0 0 0 0 0 0 0 0 0 0 0 0 0 0 0 0 0 0.25 0"/>
<feBlend mode="normal" in2="BackgroundImageFix" result="effect1_dropShadow"/>
<feBlend mode="normal" in="SourceGraphic" in2="effect1_dropShadow" result="shape"/>
</filter>
</defs>
</svg>
