<svg shape-rendering="geometricPrecision" width="87" height="54" viewBox="0 0 87 54" fill="none" xmlns="http://www.w3.org/2000/svg">
<g filter="url(#filter0_d)">
<path shape-rendering="geometricPrecision" d="M74.044 19.7444C75.1624 18.2987 76.0503 17.1386 76.706 16.2634C81.4284 9.98492 83.4753 5.97416 82.848 4.22554L82.6018 3.81602C82.4383 3.57003 82.0143 3.34414 81.3325 3.13968C80.6498 2.93536 79.7764 2.90271 78.7122 3.03759L66.9196 3.12077C66.6465 3.09358 66.3734 3.09993 66.1004 3.13968C65.8273 3.18119 65.6502 3.22285 65.5678 3.26259C65.4855 3.30426 65.4177 3.33764 65.3635 3.36483L65.1999 3.48774C65.0634 3.56915 64.9134 3.7129 64.7498 3.91825C64.5859 4.12346 64.4485 4.36131 64.3401 4.63522C63.0571 7.93802 61.5969 11.0095 59.9588 13.8485C58.9486 15.5412 58.02 17.0095 57.1748 18.2499C56.3285 19.4931 55.6187 20.4073 55.0454 20.9931C54.4723 21.5799 53.9531 22.0518 53.4895 22.4055C53.0248 22.7617 52.6703 22.9109 52.4254 22.8566C52.1793 22.8024 51.947 22.7482 51.7291 22.6921C51.3468 22.4471 51.0392 22.1134 50.8078 21.6894C50.5756 21.2673 50.4191 20.7346 50.3367 20.0926C50.2553 19.4516 50.2065 18.8983 50.1938 18.4336C50.1793 17.9698 50.1866 17.3152 50.2147 16.4679C50.2418 15.6215 50.2553 15.0493 50.2553 14.7483C50.2553 13.712 50.2761 12.5855 50.317 11.3704C50.3577 10.1561 50.3921 9.1932 50.4191 8.48332C50.4463 7.77448 50.4598 7.02309 50.4598 6.23107C50.4598 5.44083 50.4119 4.81871 50.3157 4.36766C50.22 3.91825 50.0762 3.48154 49.8864 3.05753C49.6948 2.6353 49.4153 2.30703 49.0464 2.07568C48.6776 1.84328 48.2208 1.6598 47.6749 1.52225C46.2272 1.19398 44.3847 1.01862 42.1469 0.989808C37.0692 0.937361 33.807 1.2646 32.3604 1.97344C31.7871 2.27453 31.2681 2.68317 30.8044 3.20217C30.3126 3.80346 30.2448 4.13158 30.6001 4.18403C32.2383 4.43001 33.3976 5.01771 34.0802 5.94535L34.3261 6.43628C34.5169 6.79247 34.7077 7.42006 34.8994 8.32052C35.0902 9.22112 35.2132 10.2175 35.2683 11.3097C35.4048 13.3024 35.4048 15.0077 35.2683 16.4282C35.1318 17.8485 35.0025 18.9534 34.8796 19.7437C34.7565 20.5357 34.5721 21.1767 34.327 21.6677C34.081 22.1604 33.9175 22.4606 33.8352 22.5699C33.7529 22.6783 33.6851 22.747 33.6309 22.7744C33.2756 22.91 32.9076 22.9787 32.5252 22.9787C32.1427 22.9787 31.6788 22.7869 31.1328 22.4044C30.5866 22.0239 30.0198 21.4976 29.4338 20.8285C28.8461 20.1604 28.1852 19.2247 27.4474 18.023C26.7105 16.8232 25.9455 15.4027 25.1543 13.7654L24.4997 12.5773C24.0902 11.8142 23.5304 10.7011 22.8207 9.24092C22.111 7.78068 21.4825 6.36847 20.9373 5.00234C20.7185 4.43001 20.3912 3.9933 19.9546 3.69221L19.7503 3.5693C19.6138 3.46071 19.395 3.34414 19.0948 3.22197C18.7937 3.09905 18.4809 3.01041 18.1526 2.9553L6.93306 3.0367C5.78662 3.0367 5.00908 3.29716 4.59955 3.81602L4.43586 4.06111C4.35313 4.19851 4.3125 4.4173 4.3125 4.71662C4.3125 5.01771 4.39479 5.38572 4.55848 5.82154C6.19674 9.67142 7.978 13.3839 9.90198 16.9588C11.827 20.5357 13.4988 23.4163 14.9182 25.5998C16.3377 27.7852 17.7843 29.8448 19.259 31.7832C20.7338 33.7217 21.7093 34.963 22.1866 35.5082C22.6639 36.0553 23.0392 36.465 23.3124 36.737L24.3359 37.7206C24.9905 38.3754 25.9534 39.16 27.223 40.0751C28.4923 40.99 29.8974 41.8906 31.4408 42.7768C32.9825 43.6647 34.7781 44.3869 36.825 44.9476C38.872 45.5081 40.8647 45.7331 42.8031 45.6229H47.5121C48.4678 45.5415 49.1908 45.2423 49.6821 44.7223L49.8456 44.518C49.9541 44.3552 50.0572 44.1021 50.1529 43.7611C50.2479 43.4203 50.2969 43.0442 50.2969 42.6355C50.2687 41.462 50.3584 40.4023 50.5627 39.462C50.767 38.5199 50.9993 37.811 51.259 37.3319C51.5184 36.8553 51.8113 36.4521 52.1394 36.1239C52.4669 35.7956 52.6983 35.5994 52.8357 35.5307C52.9722 35.4638 53.0818 35.4159 53.1632 35.387C53.8177 35.1689 54.5889 35.3806 55.4768 36.0216C56.3638 36.6646 57.1966 37.4547 57.975 38.3968C58.7524 39.3389 59.6873 40.3958 60.7796 41.5703C61.871 42.7438 62.8265 43.6172 63.6457 44.1905L64.4649 44.6833C65.0108 45.0097 65.7198 45.3099 66.5941 45.5839C67.4675 45.856 68.2325 45.9247 68.887 45.7882L79.3697 45.6236C80.4068 45.6236 81.2124 45.4538 81.7857 45.1119C82.3588 44.7728 82.6999 44.3949 82.8093 43.9863C82.9177 43.5768 82.9249 43.1148 82.8301 42.5947C82.7344 42.0766 82.6385 41.715 82.5436 41.5107C82.4479 41.3063 82.359 41.1345 82.2767 40.9989C80.9116 38.5423 78.3048 35.5251 74.4558 31.9493L74.3735 31.8679L74.3329 31.8263L74.2922 31.7865H74.2512C72.5034 30.121 71.3985 29.0016 70.9346 28.4275C70.0885 27.3372 69.8968 26.2314 70.3615 25.1121C70.687 24.2634 71.9148 22.475 74.044 19.7444Z" fill="white" fill-opacity="0.9"/>
</g>
<defs>
<filter id="filter0_d" x="0.3125" y="0.984375" width="86.6465" height="52.8721" filterUnits="userSpaceOnUse" color-interpolation-filters="sRGB">
<feFlood flood-opacity="0" result="BackgroundImageFix"/>
<feColorMatrix in="SourceAlpha" type="matrix" values="0 0 0 0 0 0 0 0 0 0 0 0 0 0 0 0 0 0 127 0" result="hardAlpha"/>
<feOffset dy="4"/>
<feGaussianBlur stdDeviation="2"/>
<feComposite in2="hardAlpha" operator="out"/>
<feColorMatrix type="matrix" values="0 0 0 0 0 0 0 0 0 0 0 0 0 0 0 0 0 0 0.25 0"/>
<feBlend mode="normal" in2="BackgroundImageFix" result="effect1_dropShadow"/>
<feBlend mode="normal" in="SourceGraphic" in2="effect1_dropShadow" result="shape"/>
</filter>
</defs>
</svg>
