<svg width="564" height="635" viewBox="0 0 564 635" fill="none" xmlns="http://www.w3.org/2000/svg">
<path d="M531.865 246.166C523.639 272.5 505.707 297.931 488.31 321.647C470.912 345.364 454.049 367.369 447.962 386.859C447.652 387.85 447.37 388.835 447.117 389.813C434.876 437.235 440.785 494.064 427.851 535.475C421.345 556.303 410.07 573.233 389.322 583.098C351.454 601.105 301.618 602.057 254.898 587.453C225.134 578.149 196.634 562.531 173.3 540.987C113.34 485.628 121.908 437.583 116.712 396.511C112.077 359.88 70.93 325.105 55.0916 290.039C38.4217 253.13 36.6867 218.193 46.3822 187.151C62.5375 135.427 110.437 94.5279 173.855 73.4021C240.15 51.3196 320.639 67.4027 376.906 84.977C418.214 97.8789 446.468 111.586 446.468 111.586C532.501 156.496 545.482 202.572 531.865 246.166Z" fill="#8476FF"/>
</svg>
