<svg width="1354" height="756" viewBox="0 0 1354 756" fill="none" xmlns="http://www.w3.org/2000/svg">
<path d="M282.504 3.37014e-08C354.899 0.00232881 432.624 14.9878 505.635 29.9754C578.651 44.9632 646.959 59.9508 700.537 59.9508C703.261 59.9508 705.95 59.9122 708.597 59.8326C836.951 55.9764 974.668 20.4837 1088.51 20.4837C1145.77 20.4837 1196.99 29.4668 1237.93 55.9703C1312.66 104.345 1354.03 178.666 1354 255.601C1353.98 304.614 1337.16 354.688 1301.45 399.791C1209.7 515.686 1082.66 525.345 983.853 552.385C895.728 576.504 840.817 654.529 765.378 694.722C685.971 737.026 599.822 756 514.486 756C372.294 756 232.383 703.304 129.856 618.059C22.6837 528.948 0 400.658 0 308.008C0 239.99 12.2279 191.179 12.2279 191.179C57.411 41.0644 162.662 -0.00135842 282.504 3.37014e-08Z" fill="#E8E5FF"/>
</svg>