<svg width="1035" height="634" viewBox="0 0 1035 634" fill="none" xmlns="http://www.w3.org/2000/svg">
<path d="M819.054 634C763.714 633.998 704.302 621.431 648.492 608.862C592.678 596.293 540.463 583.724 499.508 583.724C497.426 583.724 495.37 583.756 493.347 583.823C395.233 587.057 289.962 616.822 202.942 616.822C159.174 616.822 120.018 609.288 88.7228 587.062C31.6007 546.494 -0.0222794 484.167 1.17768e-05 419.647C0.0148726 378.544 12.8737 336.55 40.1676 298.726C110.302 201.533 207.412 193.433 282.941 170.756C350.304 150.53 392.278 85.0956 449.944 51.3891C510.643 15.9118 576.495 0 641.726 0C750.418 0 857.366 44.1924 935.738 115.681C1017.66 190.411 1035 297.998 1035 375.697C1035 432.738 1025.65 473.673 1025.65 473.673C991.115 599.562 910.661 634.001 819.054 634Z" fill="#8476FF"/>
</svg>
