<svg width="234" height="472" viewBox="0 0 234 472" fill="none" xmlns="http://www.w3.org/2000/svg">
<path d="M-199.647 118.369C-175.105 107.599 -145.5 103.454 -117.493 100.01C-89.4842 96.5667 -63.0713 93.8234 -44.9088 85.8516C-43.9853 85.4463 -43.082 85.0271 -42.202 84.5938C0.471189 63.5871 39.4441 25.5242 78.0353 8.58609C97.4456 0.0666577 116.762 -3.10758 136.4 3.92254C172.244 16.7534 202.418 47.3935 219.126 85.4874C229.77 109.756 234.949 137.05 232.646 164.693C226.727 235.723 185.759 259.407 158.14 287.496C133.507 312.549 131.847 359.348 115.008 390.472C97.2821 423.231 72.2011 445.442 43.2725 458.139C-4.92964 479.296 -63.8096 474.024 -117.089 447.075C-172.784 418.904 -208.351 358.764 -228.484 312.894C-243.264 279.219 -249.726 253.234 -249.726 253.234C-267.029 172.191 -240.273 136.2 -199.647 118.369Z" fill="#E8E5FF"/>
</svg>
